<?xml version="1.0" encoding="UTF-8"?>
<svg id="coralBanner1" xmlns="http://www.w3.org/2000/svg" viewBox="0 0 1177.09 886.68">
  <defs>
    <style>
      .cls-1 {
        fill: #ffebde;
        stroke: #570060;
        stroke-miterlimit: 10;
        stroke-width: 3px;
      }

      .cls-2 {
        fill: #efd5d3;
        stroke-width: 0px;
      }
    </style>
  </defs>
  <path class="cls-1" d="M1139.49,805.31c-13.11-15.07-28.7-28.08-46.34-38.76.75-3.59,1.37-7.21,1.91-10.85l49.29,14.86c5.57,1.68,11.26-.88,12.72-5.73,1.46-4.84-1.87-10.12-7.43-11.8l-51.92-15.65c-.28-.08-.56-.11-.84-.18.75-15.4-.34-30.99-3.33-46.44,3.4,2.74,6.79,5.51,10.1,8.37,4.28,3.7,10.87,3.84,14.71.29,3.84-3.54,3.48-9.41-.81-13.11-19.38-16.74-40.39-31.59-62.74-44.53.64-2.13.42-4.53-.87-6.76-6.67-11.5-12.89-22.79-15.7-34.4-2.56-10.61-2.16-21.47.99-31.49,22.69,9.77,46,18.27,69.71,25.42,13.47,4.06,27.08,7.69,40.77,10.87,5.84,1.36,11.45-1.69,12.53-6.8,1.07-5.11-2.73-10.28-8.63-11.72-36.17-8.4-71.68-20.07-105.76-34.7,0,0,.01-.02.02-.03,2.59-3.5,1.89-8.19-1.35-11.4,46.12-18.62,88.39-47.7,125.81-86.7,3.59-3.74,2.86-9.61-1.63-13.11-4.49-3.51-11.05-3.3-14.64.44-31.93,33.27-67.43,58.94-105.84,76.58-1.99-20.13-.12-40.57,5.53-59.54,1.49-5-1.95-10.44-7.69-12.17h-.03c-4.82-1.45-9.69.21-12.03,3.73-21.8-7.34-41.74-.74-61.06,5.7-14.06,4.69-27.34,9.11-40.35,7.92-7.07-.65-14.4-3.03-22.14-5.6l10.2-4.61c1.26-.57,2.53-1.15,3.8-1.72,1.06.12,2.14.14,3.23-.03,3.18-.51,5.62-2.29,6.94-4.63,10.9-5.07,21.74-10.48,32.01-16.76,42.73,6.83,79.46,4.8,109.39-6.07,22.36-8.12,40.96-21.01,58.96-33.48,4.51-3.12,5.03-9.12,1.16-13.39-3.87-4.27-10.66-5.2-15.17-2.07-16.96,11.75-34.5,23.89-54.36,31.11-21.56,7.83-47.55,10.35-77.53,7.59,13.46-11.74,24.13-25.3,33.07-39.89,27.43,7.46,57.85,2.22,77.74-14.35,3.81-3.17,4.05-8.47.86-12.41,10.21-.24,20.31-1.26,30.07-3.2,5.69-1.13,8.91-6.24,7.2-11.41-1.71-5.17-7.72-8.45-13.4-7.31-24.8,4.93-52,3.38-77.14-4.1,3.03-7.67,5.94-15.37,8.82-23.04,15.92-42.34,30.96-82.34,63.95-110.64,3.98-3.42,3.84-9.28-.31-13.1-4.16-3.82-10.75-4.14-14.73-.73-36.28,31.13-52.77,74.98-68.71,117.39-7.93,21.09-15.68,41.61-25.51,60.36-3.25.44-6.11,2.22-7.5,5.05-1.24,2.52-1.05,5.34.21,7.8-.5.81-.99,1.63-1.5,2.44-.1-.52-.21-1.05-.41-1.58l-22.77-59.83c-1.94-5.11-8.08-8.18-13.69-6.83-5.61,1.34-8.59,6.58-6.64,11.7l22.77,59.83c1.22,3.21,4.09,5.61,7.45,6.62,1.99.6,4.15.71,6.25.21.06-.01.1-.04.16-.05-4.96,6.73-10.45,13.07-16.6,18.96-.32-1.88-1.26-3.74-2.83-5.32-11.57-11.56-19.16-26.14-21.35-41.05-.78-5.28-6.19-9.33-12.07-9.05-5.89.28-10.04,4.8-9.26,10.08,2.79,18.93,12.42,37.45,27.11,52.14,1.43,1.43,3.19,2.43,5.05,2.99.52.16,1.05.21,1.58.29-1.88,1.42-3.78,2.81-5.74,4.15-3.18-.58-6.39-1.2-9.64-1.89-5.87-1.24-11.39,1.94-12.32,7.08-.44,2.42.21,4.84,1.63,6.86-3.2,1.68-6.45,3.29-9.73,4.87-5.6-16.16-12.84-32.01-21.56-47.28,8.77-18.91,14.36-38.99,16.55-59.77.55-5.22-3.84-10.18-9.72-11.06-5.92-.89-11.16,2.61-11.71,7.82-1.46,13.91-4.61,27.47-9.32,40.52-6.49-9.32-13.53-18.34-21.11-26.98-3.8-4.32-10.58-5.35-15.15-2.29-4.57,3.05-5.21,9.03-1.41,13.35,24.76,28.2,43.37,60.74,54.35,94.55-.63.28-1.26.57-1.89.86l-31,14.01c-1.09-.05-2.18-.11-3.28-.11-1.36,0-2.62.26-3.78.67l-8.89-50.65c-.89-5.1-6.22-8.92-11.91-8.51-5.68.4-9.56,4.87-8.67,9.98l10.59,60.34-21.01,9.49c-.59-8.25-2.04-16.51-4.37-24.57-1.46-5.04-7.16-8.38-12.73-7.47-5.57.92-8.89,5.75-7.43,10.79,2.9,10,4.21,20.36,3.95,30.55l-21.36,9.65c-1.15-10.86-5.12-21.6-11.45-31.26.97-.75,1.8-1.67,2.38-2.78,10.51-20.19,24.95-38.15,42.92-53.35,4.01-3.39,3.91-9.25-.22-13.09-4.12-3.84-10.72-4.2-14.73-.81-5.32,4.5-10.32,9.24-15.07,14.16l-20.54-18.97c-4.15-3.83-10.74-4.16-14.73-.76-3.99,3.41-3.86,9.27.28,13.1l22.57,20.84c-6.36,8.03-12.01,16.53-16.97,25.44-1.43-1.26-2.89-2.49-4.42-3.66-2.32-1.77-4.66-3.38-6.93-4.94-4.27-2.94-8.31-5.71-11.07-8.86-7.7-8.77-7.28-21.75-6.09-35.4.44-5.06-3.83-9.81-9.59-10.58-5.74-.78-10.74,2.69-11.18,7.75-1.46,16.86-1.83,34.52,10.83,48.93,4.57,5.21,10.22,9.09,15.2,12.51,2.02,1.39,4.05,2.78,5.97,4.25,14.88,11.38,23.61,29.49,22.24,46.14-.02.22.01.43.01.65l-30.95,13.98c-2.44.42-4.87.94-7.3,1.57,2.95-12.36,2.48-25.62-1.67-38.15-1.66-5-7.47-8.17-12.98-7.08-5.51,1.1-8.63,6.04-6.97,11.05,5.21,15.7,2.83,32.94-6.37,46.1-.66.94-1.06,1.97-1.27,3.03l-108.98,49.24c-2.96,1.34-5.93,2.68-8.91,4.01-3.25-1.63-6.47-3.36-9.63-5.29-4.92-2.99-11.32-2.05-14.32,2.11-2.84,3.95-1.54,9.34,2.8,12.44-9.41,3.98-18.95,7.75-28.67,11.11,2.12-6.56,3.47-13.36,3.93-20.25.33-5.08-4.04-9.76-9.8-10.44-5.74-.69-10.67,2.87-11,7.94-.71,10.79-4.09,21.28-9.66,30.59-4.55,1.1-9.14,2.07-13.78,2.9-16.33-6.87-32.05-14.98-46.84-24.28,12.75-15.01,26.35-29.26,40.77-42.7,21.59,5.22,48.31,10.21,72.05,2.9,17.23-5.31,30-15.96,42.35-26.25,3.09-2.57,6.16-5.14,9.3-7.61,17.3-13.59,33.15-19.09,47.09-16.35,5.69,1.12,10.97-2.03,11.79-7.03.82-5-3.13-9.93-8.83-11.08-20.63-4.05-42.33,2.72-64.5,20.14-3.28,2.57-6.49,5.25-9.71,7.93-11.42,9.52-22.21,18.52-35.64,22.66-13.98,4.31-29.73,3.06-47.02-.38,22.74-19.4,47.3-36.94,73.53-52.47,8.11-4.8,16.58-9.52,24.76-14.09,25.63-14.29,52.14-29.08,73.83-49.46,12.76-11.99,23.38-25.49,32.95-39.52,29.6,6.19,60.48-.09,83.2-15.57,6.42-.06,12.88.43,19.29,1.45.03,0,.06.02.08.03.96.29,1.96.42,2.96.47,7.93,1.48,15.73,3.76,23.2,6.83,5.55,2.28,11.77.26,13.92-4.51s-.62-10.49-6.16-12.78c-3.3-1.36-6.68-2.55-10.08-3.65,7.19-8.26,12.21-18.07,14.72-28.52,10-5.45,21.55-8.59,33.65-9.09,4.27-.18,7.81-2.61,9.01-6.19,2.32-6.92,4.16-13.52,5.65-19.92,15.5-2.13,31.11-4.95,45.76-10.85l38.78,15.12c.31.12.63.23.94.33,5.32,1.6,10.92-.56,12.83-5.11,2.02-4.82-.87-10.5-6.46-12.67l-24.69-9.63c11.5-8.84,19.26-19.94,22.06-32.1,1.17-5.09-2.66-10.33-8.42-11.83-5.83-1.44-11.5,1.52-12.67,6.61-2.55,11.08-11.43,21.11-24.71,28.18-5.23-1.47-10.68.67-12.56,5.14-.03.08-.04.17-.07.25-8.65,2.95-17.94,4.89-27.4,6.4,1.36-13.71.58-26.4-2.42-38.56-1.29-5.24-7.04-8.88-12.84-8.14-5.8.75-9.46,5.6-8.17,10.84,2.97,12.05,3.35,24.93,1.17,39.29-4.19,1.66-6.6,5.73-5.53,10.11.42,1.72,1.36,3.24,2.58,4.52-.79,3.14-1.67,6.33-2.68,9.62-7.74.85-15.24,2.57-22.35,5.07-.45-4.14-1.26-8.28-2.53-12.36-1.44-4.62-3.33-9.31-5.16-13.84-6.05-15.02-9.58-25.34-3.81-31.8,3.55-3.98,2.58-10.03-2.18-13.52-4.76-3.48-11.5-3.08-15.06.9-13.19,14.76-5.4,34.09.86,49.63,1.77,4.38,3.43,8.52,4.65,12.42,2.18,6.98,2.67,14.18,1.71,21.15-.51,1.19-.75,2.48-.67,3.79-2.35,10.75-8.26,20.66-17.05,27.92,1.41-1.89,2.75-3.83,3.97-5.85,2.73-4.5.66-10.4-4.63-13.19-5.26-2.76-11.77-1.39-14.5,3.11-14.16,23.36-46.13,36.55-76.91,33.15,4.24-6.86,8.34-13.75,12.4-20.59,5.67-9.56,11.37-19.17,17.03-28.86,1.59-.2,3.13-.71,4.48-1.59,8.95-5.82,20.68-8.38,32.18-7.03,5.94.7,11.01-2.98,11.34-8.23.33-5.25-4.23-10.06-10.15-10.76-7.59-.89-15.22-.56-22.54.79,12.33-22.14,23.97-44.77,33.99-68.12,1.59-.32,3.11-.93,4.39-1.93,3.08-2.43,8.68-2.18,17.53-1.47,5.69.46,11.58.93,17.58.26,15.7-1.78,28.87-12.06,32.77-25.59,1.43-4.99-2.01-10.37-7.71-12.09l-.12-.03c-5.77-1.68-11.61,1.03-13.05,6.05-1.9,6.59-8.56,11.8-16.21,12.66-3.73.42-8.22.06-12.99-.32-4.06-.33-8.5-.66-12.99-.51,3.52-9.49,6.77-19.09,9.62-28.85,3.08-10.56,5.84-21.55,8.51-32.18.24-.95.48-1.9.72-2.84.45-.36.87-.76,1.24-1.21,2.23-1.02,4.49-1.99,6.78-2.92.97.5,2,.92,3.12,1.16,15.54,3.26,30.54,8.6,44.6,15.88.7.36,1.41.65,2.14.87,4.8,1.45,9.99-.16,12.32-4.09,2.68-4.52.56-10.41-4.74-13.16-7.82-4.05-15.9-7.57-24.18-10.55,5.4-1.06,10.85-1.93,16.35-2.52,5.83-.62,9.62-5.39,8.47-10.64-1.15-5.26-6.81-9-12.65-8.39-16.12,1.73-31.93,5.35-46.88,10.61,9.18-32.59,21.46-63.59,47.12-84.24,4.1-3.3,4.16-9.15.12-13.07-4.03-3.92-10.63-4.42-14.73-1.12-17.46,14.05-29.25,31.65-38.05,50.96-1.35-.95-2.92-1.67-4.67-2-23.66-4.37-46.22-14.16-65.23-28.3-4.57-3.4-11.12-3.07-14.6.76-3.49,3.83-2.6,9.69,1.98,13.09,16.6,12.36,35.56,21.83,55.64,27.88,6.4,1.93,12.91,3.51,19.5,4.73.25.05.5.04.75.07-3.85,10.58-7.08,21.48-10.02,32.47-14.09-10.32-26.31-22.74-35.82-36.53-3.11-4.52-9.56-6.19-14.4-3.77-4.84,2.43-6.24,8.05-3.13,12.57,11.24,16.3,25.82,30.89,42.63,42.92-1.78,2.94-1.67,6.74.72,9.92.8,1.06,1.79,1.95,2.88,2.66-1.67,6.62-3.41,13.21-5.22,19.73l-11.08-20.65c-2.64-4.92-9.1-7.29-14.41-5.32-5.33,1.97-7.51,7.55-4.88,12.46l21.34,39.77c.15.28.36.52.54.78-18.76,52.9-48.06,102.29-76.51,150.23-15.43,25.98-31.37,52.84-53.69,73.81-20.07,18.86-44.42,32.44-70.2,46.82-4.1,2.29-8.26,4.61-12.43,6.97,5.04-10.71,8.28-22.21,9.59-34,11.6-4.64,23.87-8.05,36.61-10,5.58-.86,8.98-5.64,7.58-10.69-1.4-5.05-7.05-8.45-12.63-7.6-4.14.63-8.23,1.41-12.28,2.3,11.1-11.33,19.69-24.7,25.18-39.16,12.67-8.68,19.73-21.34,26.58-33.64,4.68-8.38,9.12-16.31,15.1-22.7,1.13,0,2.27-.18,3.36-.54,3.73-1.23,5.96-4.28,6.1-7.67,3.09-2.26,6.4-4.44,9.8-6.68,7.11-4.68,14.47-9.53,20.76-15.77,7.25-7.2,12.36-15.53,17.3-23.59,5.91-9.63,11.49-18.73,20.02-24.74,1.98-1.4,4.16-2.75,6.36-4.13,10.08-6.29,23.89-14.92,21.57-30.17-.78-5.12-6.04-9.01-11.73-8.72-5.7.3-9.69,4.69-8.92,9.8.65,4.28-5.29,8.35-13.74,13.63-2.41,1.51-4.9,3.06-7.23,4.71-11.48,8.11-18.24,19.13-24.78,29.79-4.64,7.56-9.02,14.7-14.82,20.46-5.03,5-11.32,9.13-17.98,13.52-1.22.8-2.44,1.62-3.67,2.44-4.1-12.32-6.17-25.04-6.16-37.62,5.92-6.56,16.66-10.22,28.06-14.05,16.85-5.66,35.96-12.07,40.86-30.47,1.32-4.96-2.14-10.24-7.75-11.93-.1-.03-.2-.06-.3-.09-5.79-1.59-11.57,1.21-12.92,6.26-2.33,8.77-12.44,12.74-28.81,18.23-5.23,1.75-10.71,3.6-16.01,5.87,1.05-4.32,2.34-8.58,3.92-12.74,1.81-4.73-1.16-10.16-6.62-12.14-5.47-1.95-11.36.25-13.16,4.98-11.58,30.33-10.65,65.05,2.28,96.63-.29.28-.6.52-.88.81-4.53,4.58-8.21,9.64-11.5,14.86-3.64-7.55-8.6-14.66-13.29-21.34-7.02-10.02-13.65-19.48-15.62-29.09-1.5-7.3-.22-14.87,2.02-22.23,13.21-13.58,24.34-29.02,32.85-45.58.94-.06,1.88-.2,2.79-.49,15.96-5.19,29.58-15.01,38.83-27.53,18.54-5.08,34.44-16.76,42.93-32.09.93-1.68,1.77-3.4,2.62-5.12,1.69-3.44,3.28-6.69,5.43-8.99,2.13-2.27,5.22-3.04,6.13-2.7,5.37,2.18,11.4.24,13.46-4.39,2.07-4.63-.62-10.16-5.98-12.36-11.76-4.81-23.56,0-30.04,6.93-1.29,1.38-2.36,2.83-3.35,4.29-5.27-16.4-12.74-32.3-22.43-47.48-2.94-4.59-9.33-6.48-14.28-4.22-4.95,2.27-6.58,7.83-3.65,12.42,12.39,19.41,21.1,40.97,25.39,62.54-2.53,2.48-5.31,4.75-8.39,6.7-1.3-1.96-3.29-3.61-5.84-4.51-5.6-1.98-11.72.35-13.53,5.26-.96,2.6-2.22,5.07-3.61,7.49-.11.01-.21.04-.32.06-5.62.69-9.2,5.37-7.98,10.45.02.08.07.15.1.24-2.7,2.74-5.69,5.23-8.96,7.44-.88-3.19-3.47-6.03-7.19-7.32-5.8-2-11.71.42-13.49,5.33-5.93,16.39-14.69,31.98-25.64,46.05-4.4-.39-8.58,1.66-10.11,5.44-1.37,3.38-2.82,6.98-4.16,10.75-.4.4-.78.83-1.19,1.23-2.53,2.48-3.11,5.95-1.94,9.09-1.43,5.87-2.25,12.04-1.86,18.4-3.61-1.15-7.62-.4-10.12,2.18l-60.42,62.64c-6.01-28.7-9.66-56,2.16-77.21,8.52-.96,17.79,1.24,24.87,6.2,4.32,3.02,10.34,2.55,13.42-1.09,3.08-3.63,2.07-9.04-2.26-12.07-6.67-4.67-14.55-7.83-22.68-9.36,4.35-4.03,9.15-7.89,14.11-11.86,5.8-4.64,11.68-9.37,17.04-14.59,5.93,1.38,12.02,2.03,17.97,1.85,5.72-.18,9.83-4.48,9.18-9.59-.65-5.12-5.8-9.13-11.52-8.94-.78.02-1.56.01-2.34,0,.41-.71.86-1.4,1.25-2.13,4.06-7.82,6.08-16.15,7.9-24.28,28.77-.09,55.32-13.89,68.44-35.91,2.69-4.52.58-10.41-4.72-13.17-5.28-2.74-11.77-1.32-14.47,3.2-8.56,14.36-25.51,24.23-44.04,26.31,1.42-3.73,3.19-7.22,5.59-10.31,2.91-3.75,1.67-9.13-2.78-12.02-4.46-2.89-10.41-2.19-13.32,1.55-1.87,2.41-3.43,4.92-4.78,7.49-.85-4.5-1.83-8.99-2.99-13.46,16.4-6.32,30.44-16.75,40.74-29.7l52.16,22.26c.42.18.84.33,1.27.46,5,1.51,10.31-.42,12.29-4.65,2.15-4.59-.43-10.15-5.76-12.43l-50-21.34c2.72-5.44,4.88-11.12,6.34-16.99,1.94.07,3.89-.27,5.62-1.18,10.18-5.38,18.91-12.92,25.24-21.8,3.07-4.31,1.44-10.29-3.65-13.37-5.1-3.08-11.7-2.08-14.77,2.23-2.9,4.06-6.53,7.68-10.61,10.85-1.38-4.06-5.54-7.21-10.46-7.45-5.94-.3-10.66,3.74-10.54,9.02.26,11.38-2.71,22.47-8.15,32.4-2.62.71-4.84,2.35-5.97,4.76-.77,1.65-.92,3.42-.56,5.13-7.48,9.51-17.46,17.38-29.12,22.57-2.25-6.24-4.78-12.4-7.62-18.47l19.19-48.36c1.93-4.86-1.07-10.5-6.69-12.59-5.62-2.04-11.74.14-13.67,5l-14.67,36.95c-1.38-.06-2.77.12-4.08.63-4.73,1.82-6.61,6.85-4.18,11.21.95,1.72,1.8,3.48,2.7,5.22.28,2.06,1.3,4.03,2.89,5.62,3.57,7.45,6.65,15.07,9.25,22.79-1.48,2.28-1.85,5.15-.68,7.97.89,2.14,2.54,3.85,4.54,5.05,3.69,14.08,5.81,28.38,6.15,42.57.07,2.98,1.86,5.69,4.5,7.35-1.09,3.78-2.39,7.39-4.13,10.74-.98,1.89-2.15,3.69-3.4,5.45-.21-.1-.43-.19-.63-.3-5.13-2.64-11.4-1.22-13.98,3.17-2.05,3.49-1.12,7.78,1.92,10.73-3.59,3.16-7.43,6.25-11.37,9.39-9.74,7.8-19.77,15.87-27.17,26.19-4.06,1.39-6.25,5.11-5.43,8.96-1.48,2.9-2.79,5.85-3.85,8.87,2.31-9.84,4.27-19.5,6.12-28.67,1.03-5.12-2.82-10.3-8.73-11.67-5.85-1.32-11.43,1.77-12.47,6.89-.44,2.2-.89,4.43-1.35,6.68l-.79-17.78c-.34-7.76-.73-16.56-3.81-25.28-3.04-8.62-8.41-16.28-13.15-23.04l-7.27-10.36c.61-1.27.94-2.69.83-4.22l-4.83-63.47c-.4-5.29-5.52-9.61-11.47-9.67-5.93-.05-10.41,4.2-10.01,9.49l2.7,35.42-1.49-2.12c-3.26-4.64-9.92-6.33-14.9-3.78-4.97,2.55-6.36,8.38-3.11,13.01l31.54,44.91c4.38,6.24,8.51,12.14,10.67,18.24,2.18,6.18,2.5,13.26,2.8,20.12l3.39,76.65c.07,1.69.65,3.28,1.57,4.69-4.48,11.1-9.97,21.77-16.86,31.55-1.36-1.13-2.99-2.03-4.87-2.51-5.72-1.41-11.27,1.45-12.57,6.38l-14.31-106.4c-.71-5.28-6.07-9.39-11.97-9.16-5.9.23-10.11,4.69-9.4,9.98l22.16,164.7-9.63,42.2c-.08.34-.16.69-.23,1.03-14.19-10.23-27.78-21.15-38.47-33.91-3.24-3.87-6.08-7.8-8.55-11.77,9.89-37.07,20.52-74.47,31.66-111.23,1.51-5-1.92-10.46-7.66-12.2h-.01c-5.74-1.74-11.62.91-13.13,5.9-7.14,23.57-14.05,47.4-20.72,71.24.87-4.89-2.67-9.86-8.31-11.36-5.81-1.52-11.54,1.36-12.79,6.43-3.11,12.52-2.02,26.23,2.87,40-9.19-3.73-18-8.23-26.32-13.42.39-.85.69-1.76.78-2.75,2.45-29.08,15.61-55.23,29.54-82.92,11.16-22.16,22.69-45.08,28.38-69.85l.6-2.67c1.18-5.36,2.3-10.42,4.87-14.11,2.04-2.93,5.76-4.9,8.12-4.29,5.81,1.49,11.52-1.42,12.76-6.49,1.23-5.07-2.42-10.35-8.3-11.89-7.36-1.89-14.23-.69-19.9,2.14-3.14-40.86-20.75-81.48-50.51-114.89-3.83-4.3-10.62-5.28-15.16-2.19-4.54,3.09-5.13,9.07-1.3,13.37,16.03,18,28.1,38.32,35.87,59.62-6.19-2.8-12.59-5.09-18.65-7.26-15.39-5.49-28.68-10.23-33.24-20.29-2.28-5.03-8.58-7.77-14.07-6.12-5.49,1.65-8.09,7.06-5.81,12.09,8.36,18.44,28.61,25.66,46.46,32.03,13.2,4.71,25.67,9.16,32.69,17.17.06.07.13.12.19.19,2.6,14.44,3.23,29.05,1.73,43.45-.25,2.41.56,4.75,2.07,6.67-1.93,7.96-4.52,15.83-7.57,23.59-7.22-5.06-14.92-9.28-22.47-13.4-4.03-2.2-7.84-4.27-11.57-6.47-16.03-9.44-25.32-19.19-27.6-28.98-1.22-5.25-6.93-8.94-12.74-8.25-5.82.69-9.54,5.5-8.31,10.74,3.58,15.37,16.3,29.58,37.78,42.23,4.07,2.4,8.24,4.67,12.26,6.87,9.03,4.93,17.63,9.64,24.76,15.43-3.57,7.64-7.36,15.18-11.11,22.64-2.29,4.56-4.6,9.14-6.86,13.76-17.19-13.85-31.66-30.53-42.17-48.72-2.8-4.85-9.31-7.06-14.56-4.93-5.24,2.12-7.22,7.77-4.42,12.62,12.89,22.31,31.11,42.57,52.79,58.91-6.82,15.56-12.44,31.67-14.98,48.71-2.49-2.12-4.92-4.3-7.27-6.56-4.19-4.03-11.01-4.51-15.22-1.08-4.21,3.43-4.23,9.48-.04,13.51,20.81,19.99,46.81,35.35,75.21,44.41.06.02.13.04.2.06,1.66.5,3.32.6,4.9.41,2.41,3.57,5.04,7.11,7.95,10.59,14.55,17.36,32.83,31.04,51.22,43.86-2.07,13.29-2.68,27.6,1.34,41.79-7.02,11.36-14.06,23.89-20.15,37.24-1.21-2.27-2.57-4.49-4.07-6.64.38-.98.62-2.03.6-3.16l-1.19-59.41c-.1-5.28-5.02-9.81-10.95-10.13-5.94-.32-10.67,3.71-10.57,8.99l.99,49.25c-1.58.38-3.07,1.08-4.27,2.18-3.87,3.51-3.55,9.39.71,13.11,10.68,9.34,16.38,23.49,14.53,36.05-.3,2.05.23,4.08,1.31,5.84-.85,3.37-1.61,6.76-2.25,10.18-7.1-8.91-14.77-17.04-23.59-23.78-12.52-27.35-11.29-58.65,3.64-83.17,2.65-4.35.66-10.07-4.45-12.77-5.1-2.7-11.4-1.37-14.05,2.98-2.27,3.73-4.26,7.6-6,11.57-6.46-8.89-15.14-16.71-23.68-24.37-8.24-7.4-16.03-14.38-21.53-22.03-8.74-12.13-12.05-26.63-15.56-41.97-1.61-7.02-3.27-14.28-5.5-21.42-4.99-15.95-12.66-27.9-21.37-36.61,6.2-21.16,11.82-42.63,16.66-64.06,1.15-5.09-2.61-10.36-8.47-11.8-5.83-1.42-11.49,1.55-12.64,6.65-1.96,8.68-4.09,17.36-6.29,26.03-22.52-10.72-39.75-30.97-44.27-53-1.08-5.26-6.69-9.08-12.54-8.52-5.84.56-9.71,5.27-8.63,10.53,6.04,29.45,29.84,56.37,60.56,69.53-1.02,3.73-2.03,7.46-3.09,11.18-7.23-3.49-14.43-5.3-20.86-5.7-5.94-.38-10.73,3.59-10.7,8.87.03,5.28,4.87,9.88,10.82,10.24,5.49.35,10.6,2.25,15.26,5.17-.12.39-.23.79-.35,1.18-1.53,4.99,1.88,10.46,7.62,12.22h.05c2.3.71,4.61.67,6.66.09,4.8,6.6,8.52,14.25,10.88,21.8,2.02,6.46,3.53,13.06,5.12,20.04,3.77,16.51,7.68,33.58,18.78,49,6.88,9.55,15.94,17.68,24.71,25.55,13.75,12.35,25.63,23,27.02,36.31.25,2.43,1.51,4.62,3.36,6.29-1.13,11.95-.25,24.18,2.7,36.15-9.78-3.34-19.74-4.77-29.55-5.78-.64-39.76-34.42-79.41-78.09-91.03-5.61-1.5-11.18,1.25-12.44,6.15-1.23,4.79,2.12,9.85,7.52,11.48.12.04.25.07.37.11,33.66,9.03,60.63,40.43,61.72,71.12-9.55-1.25-18.45-3.19-26.05-7.52-4.53-2.59-8.74-6.12-13.21-9.86-1.24-1.04-2.47-2.07-3.72-3.09-11.9-9.74-24.99-18.19-38.87-25.24-.16-1.48-.66-2.97-1.62-4.37-8.38-12.13-5.79-28.43-3.28-44.2l.78-4.98c1.22-8.04,1.51-15.49.95-22.34l16.1-4.8c5.49-1.64,8.11-7.04,5.84-12.07-2.27-5.03-8.56-7.79-14.05-6.15l-12.44,3.71c-3.74-8.67-9.62-15.69-17.58-20.85-4.97-3.23-11.65-2.44-14.89,1.75-3.25,4.19-1.85,10.21,3.13,13.43,14.41,9.34,13.46,31.15,11.61,43.32l-.76,4.87c-.05.34-.11.68-.16,1.02-16-3.07-31.63-8.44-48.07-14.1-8.03-2.76-16.32-5.62-24.65-8.17-.49-.15-.98-.3-1.47-.45-35.76-10.78-64.49-12.21-87.77-4.36-5.41,1.82-7.78,7.32-5.32,12.29,1.4,2.81,4.05,4.85,7.06,5.76,2.31.7,4.85.73,7.19-.06,18.59-6.26,42.6-4.8,73.36,4.47.45.14.91.27,1.36.41,1.9.58,3.83,1.23,5.74,1.85-12.37,5.79-23.16,14.09-31.01,24.22-3.25,4.19-1.85,10.21,3.12,13.44,1,.65,2.07,1.13,3.16,1.46,4.36,1.31,9.14.14,11.74-3.21,9.47-12.22,24.43-21.1,41.03-24.36,1.1-.22,2.07-.62,2.97-1.1,12.73,4.25,25.77,8.19,39.23,10.74-.43,7.07-.14,14.23,1.64,21.28-16.23-5.72-33.15-9.63-50.26-11.47-5.75-.61-10.61,3.01-10.86,8.09-.25,5.09,4.23,9.71,9.96,10.32,29.77,3.18,58.85,13.33,84.01,29.03-3.36,1.12-6.47,2.75-9.13,4.91-4.09,3.31-4.12,9.17-.07,13.08,1.36,1.31,3.01,2.24,4.75,2.76,3.45,1.04,7.27.51,9.99-1.69,3.57-2.89,10.17-3.09,14.44-.43,2.27,1.42,4.88,1.96,7.33,1.75,3.8,3.09,7.81,6.13,12.44,8.77,15.55,8.88,32.58,10.47,49.06,12.01,11.59,1.09,22.54,2.12,32.34,5.57,5.34,1.88,10.26,4.49,14.9,7.62.36.69.67,1.38,1.04,2.07,1.4,2.56,3.87,4.4,6.67,5.24.66.2,1.34.33,2.02.41,10.37,9.49,19.28,21.68,27.97,34.57.07,2.99.24,5.98.53,8.98-.52.3-1.01.63-1.47,1.02-12.07,10.46-32,13.09-48.34,6.48-4.55-1.84-9.52-.68-12.19,2.51-6.9-4.5-13.99-8.74-21.26-12.71-3.96-2.16-7.99-4.25-12.01-6.34-12.33-6.4-23.97-12.44-33.6-20.51-4.29-3.6-8.24-7.65-12.41-11.94-2.07-2.12-4.18-4.28-6.36-6.42-.05-.05-.08-.11-.13-.16-.05-.05-.11-.08-.16-.13-2.34-2.29-4.78-4.55-7.39-6.74-22.87-19.18-55.4-28.56-84.9-24.5-3.4.47-6.18,2.45-7.4,5.27-1.22,2.82-.72,6.11,1.34,8.76l4.55,5.88c3.38,4.37,9.89,5.73,14.55,3.05,2.19-1.26,3.58-3.19,4.09-5.34,18.96.36,38.28,7.21,52.91,18.99-5.43,4.89-10.45,10.15-15.04,15.72l-59.68-17.89c-.14-.12-.25-.25-.4-.37-21.14-16.05-39.29-35.95-52.51-57.53-2.84-4.65-9.19-6.64-14.2-4.46-5.01,2.17-6.76,7.7-3.92,12.33,2.13,3.48,4.42,6.91,6.78,10.31-14.51-4.39-30.01-5.42-44.54-2.63-5.7,1.1-8.97,6.18-7.29,11.36,1.1,3.41,4.08,6.01,7.61,7.07,1.83.55,3.81.69,5.75.32,17.23-3.31,37.13.88,51.93,10.93,3.11,2.11,6.96,2.61,10.22,1.64.69.71,1.35,1.44,2.05,2.15-14.44-.81-24.84,3.06-30.99,11.65-2.98,4.16-1.42,9.96,3.51,12.94.88.54,1.81.95,2.76,1.23,4.34,1.31,9.1.06,11.55-3.36,5.13-7.15,22.69-3.18,32.7-.18l67.37,20.19c-14.28,22.89-22.09,49.37-21.78,76.25.05,4.26,3.34,8.05,7.77,9.38.88.27,1.8.43,2.76.49,5.75.34,10.37-3.52,10.31-8.63-.29-25.49,7.67-50.58,22.09-71.79,4.19-.11,7.86-2.47,8.98-6.22.53-1.76.41-3.57-.21-5.26,3.49-4.07,7.23-7.95,11.23-11.6,4.01,4.11,8.18,8.31,12.87,12.25,11.56,9.69,24.91,16.62,37.82,23.32,3.88,2.01,7.76,4.03,11.57,6.11,17.7,9.66,34.3,21.08,49.36,33.94,6.36,5.43,11.08,12.46,11.2,16.72.04,1.27-.37,1.85-1.03,2.39-2.13,1.71-3.14,4.1-3.09,6.56-3.87,1.64-7.86,3.07-12.02,4.18-5.38,1.44-8.08,6.6-6.04,11.51,1.24,2.99,3.96,5.21,7.11,6.15,2.02.61,4.22.7,6.33.13,42.94-11.53,69.72-45.35,95.62-78.06,1.84-2.33,3.68-4.6,5.52-6.9,0,0,.01.01.02.02,12.92,8.17,26.52,15.45,40.58,21.9,1,3.36,3.86,6.01,7.37,7.06,1.55.47,3.21.63,4.87.42,1.31-.17,2.59-.37,3.89-.56,12.08,4.85,24.45,9.06,37.01,12.6,9.92,5.05,17.32,15.65,24.49,25.94l2.21,3.16c11.74,16.7,24.45,27.15,37.91,31.21,3.91,1.18,7.89,1.82,11.93,1.91,5.75.14,10.17-3.9,9.88-9.03-.29-5.13-5.19-9.39-10.93-9.52-10.01-.24-20.56-8.15-31.36-23.52l-2.16-3.09c-2.01-2.89-4.09-5.85-6.27-8.8,17.31,3.09,34.78,4.87,52.15,5.38-.19,2.55.78,5.23,2.98,7.34,16.4,15.7,36.62,28.46,58.47,36.91,4.85,1.87,9.74,3.52,14.66,5.01,16.82,5.07,33.98,8.16,50.69,11.16l65.17,11.71c2.17,7.41,4.96,14.7,8.39,21.78,1.34,2.76,3.93,4.76,6.88,5.66,2.21.67,4.62.71,6.88-.03,5.26-1.72,7.62-7.02,5.28-11.85-1.82-3.76-3.37-7.61-4.79-11.49l12.09,2.17c5.71,1.03,10.92-2.21,11.63-7.23.72-5.02-3.38-9.93-9.04-10.94l-19.99-3.59c-2.16-11.85-2.49-23.83-.88-35.45,31.01,15.59,60.6,37.44,86.34,64.4,2.32,2.43,4.59,4.95,6.87,7.46-2.79.42-5.29,1.84-6.73,4.18-11.28,18.3-12.84,41.58-4.16,62.29,1.25,2.98,3.96,5.18,7.1,6.13,2.03.61,4.24.7,6.36.13,5.37-1.46,8.06-6.62,6-11.53-6.57-15.68-5.39-33.3,3.15-47.15.1-.16.14-.33.23-.49,6.71,7.88,13.26,15.88,19.68,23.76.45.55.89,1.09,1.34,1.64-8.78,15.83-8.62,35.73.64,52.63,1.4,2.56,3.87,4.39,6.66,5.23,2.37.71,4.97.71,7.33-.19,5.14-1.95,7.2-7.37,4.6-12.11-4.59-8.38-5.81-18.1-3.87-26.95,22.4,26.62,46.76,52.4,78.56,71.08.87.51,1.78.9,2.71,1.18,4.55,1.37,9.52.01,12.01-3.6,3-4.35,1.27-10.32-3.86-13.33-11.79-6.93-22.46-14.95-32.43-23.76.96-1.53,1.4-3.36,1.15-5.32-4.77-36.65,1.41-73.02,17.81-105.41,10.13,2.3,20.8,3.74,31.47,2.96-.84,16.72-3.98,33.19-9.57,48.85-2.54,7.13-6.29,10.3-7.66,10.06-.47-.08-.94-.22-1.42-.35-2.66-.7-7.11-1.88-11.94-.42-6.47,1.95-9.78,8.62-7.39,14.88,1.41,3.68,4.59,6.41,8.35,7.54,2.01.61,4.18.76,6.34.36,2.56-.47,4.62-1.76,5.94-3.51.56.05,1.1.05,1.65.06,6.12,18.53,16.34,36.43,29.81,51.98,1.45,1.67,3.36,2.84,5.42,3.46,3.11.94,6.56.61,9.24-1.15,4.45-2.93,5.11-8.71,1.47-12.91-12.52-14.45-21.87-31.23-27.05-48.52-.13-.44-.33-.85-.53-1.26,3.12-3.48,5.73-7.97,7.66-13.39.66-1.84,1.28-3.7,1.88-5.57,13.23,8.72,25.06,18.98,35.2,30.63,1.45,1.66,3.35,2.83,5.4,3.44,3.12.94,6.58.61,9.26-1.16,4.44-2.94,5.09-8.72,1.44-12.92ZM1043.69,339.39c13.23,3.99,27,6.43,40.77,7.45-13.34,9.9-32.75,13.52-50.74,10.04,2.99-5.89,5.79-11.89,8.44-17.96.51.16,1.01.32,1.52.48ZM777.05,638.65c-2.14.59-3.83,1.78-4.98,3.3-18.02-4.17-36.05-6.36-53.72-6.33-15.34.01-30.39,1.6-44.95,3.13-9.01.95-18.32,1.93-27.42,2.5-38.82,2.42-79.02-2.68-117.16-14.33,20.42-5.9,39.78-13.84,58.64-22.16,6.01,2.52,12.06,4.69,18.09,6.51,26.18,7.89,51.98,9.63,71.79,9.28,36.1-.63,70.65-7.87,104.1-15.11,8.17,3,16.22,6.26,24.12,9.87,5.25,2.4,11.41.69,13.72-3.83,2.31-4.52-.1-10.14-5.37-12.55-8.76-4-17.65-7.61-26.64-10.89-1.37-.81-2.9-1.37-4.51-1.59-32.18-11.35-65.5-18.76-98.36-25.42l64.27-29.04c22.94-2.99,47.99,5.06,74.33,13.57,3.2,1.03,6.46,2.06,9.72,3.09-13.16,19.86-12.48,47,2.68,67.98,1.47,2.04,3.63,3.47,5.99,4.18.07.02.14.02.22.04l-64.57,17.79ZM658.34,572.82c1.23,1.11,2.73,2.01,4.45,2.52.37.11.75.21,1.14.29,26.76,5.34,54.02,10.78,80.65,18.1-22.74,4.4-45.88,7.88-69.24,8.28-17.7.31-40.67-1.22-63.75-8.07l46.76-21.12ZM852.68,607.48c-11.72-16.22-11.01-38.51,1.4-52.61,18.63,4.8,37.9,7.71,57.44,8.73.43.68.92,1.34,1.54,1.95,12.9,12.57,26.54,24.69,40.66,36.24-7.62-1.14-15.46-1.73-23.35-1.44-16.47.61-31.54,4.76-46.12,8.78l-31.58,8.7c2.31-2.88,2.46-6.95.01-10.34ZM988.19,610.61c.34-3.03-1.01-6.26-3.94-8.48-15.79-12.02-31.01-24.87-45.48-38.27,17.58-.63,35.22-2.79,52.65-6.4,5.36,12.23,12.34,23.94,20.91,34.81,1.1,1.39,2.52,2.47,4.09,3.21.35,2.57.82,5.14,1.44,7.69,2.02,8.36,5.32,16.23,9.22,23.94-7.31-3.54-14.7-6.95-22.25-10.09-4.93-2.05-10.54-4.27-16.64-6.4ZM1023.37,549.1c-.54.58-1.03,1.21-1.4,1.94-.93,1.84-1.08,3.85-.62,5.77-1.29,3.12-2.38,6.32-3.23,9.59-2.62-4.44-4.91-9.02-6.98-13.67,4.1-1.12,8.18-2.34,12.23-3.63ZM814.82,502.12c1.33,1.44,3.09,2.6,5.15,3.22.37.11.75.21,1.13.28,5.69,1.14,10.99-1.99,11.83-6.99.28-1.66.49-3.34.69-5.01l32.52-14.69c.76.1,1.54.13,2.33.08,3.53-.25,6.36-2.08,7.79-4.65l9.15-4.13c6.47.91,13.23,3.14,20.28,5.48,7.81,2.59,15.85,5.25,24.48,6.51.07.07.11.15.18.21,5.83,5.68,8.99,13.75,8.23,21.06-.49,4.68,2.98,9.15,7.97,10.65.57.17,1.16.31,1.76.4,5.92.89,11.15-2.62,11.69-7.84.87-8.4-1.13-17.12-5.46-24.96,10.13-1.69,19.79-4.88,29.25-8.04,17.44-5.81,32.48-10.84,46.83-5.59.13.05.26.06.39.11-3.66,19-4.13,38.84-1.26,58.26-2.5.94-4.99,1.87-7.51,2.74-40.99,14.22-84.55,19.18-126.14,14.71,11.59-12.46,21.66-26.06,29.98-40.55,2.62-4.56.41-10.43-4.93-13.12-5.34-2.71-11.78-1.17-14.4,3.38-9.12,15.88-20.49,30.61-33.81,43.78-.79.78-1.34,1.67-1.76,2.61-5.6-1.14-11.15-2.42-16.63-3.92-8.44-2.32-16.89-5.05-25.84-7.93-14.56-4.7-29.34-9.45-44.13-12.41l30.21-13.65ZM603.03,263c3.76,9.83,10,18.8,16.11,27.52,7.15,10.2,13.5,19.3,14.97,28.24-.77-.26-1.56-.47-2.4-.58-5.74-.72-10.7,2.8-11.07,7.87-.5,6.81-1.82,13.52-3.85,20.03-3.3,2.12-4.61,5.84-3.52,9.41-5.53,12.7-13.92,24.28-24.57,33.77-2.4-11.47-6.69-22.76-13.03-33.39-2.78-4.67-9.12-6.72-14.15-4.6-5.04,2.12-6.87,7.62-4.09,12.28,25.16,42.21,11.25,98.93-30.37,123.86-2.76,1.65-4.16,4.37-4.13,7.22-9.74,7.14-19.21,14.58-28.4,22.32-.62-12.95-1.87-25.93-3.68-38.89.55.06,1.1.04,1.64.03,1.21,1.05,2.68,1.86,4.3,2.35.98.3,2.02.47,3.09.5,5.18.16,9.28-3.08,9.87-7.46,2.61-.13,5.26.06,7.86.58,5.69,1.14,10.99-1.98,11.84-6.97.85-4.99-3.11-9.99-8.77-11.11-3.28-.66-6.6-.99-9.9-1.05,3.41-22.52,14.94-43.66,27.04-65.78,14.15-25.88,28.78-52.64,30.23-82.98.09-1.9-.48-3.74-1.52-5.33l36.49-37.83ZM505.46,251c-3.51,21.14.57,44.45,5.75,68.38.56,2.59,2.36,4.76,4.72,6.11-3.22,2.85-6.5,5.29-9.82,6.84.47-5.78.64-11.63.35-17.61-.25-5.12-5.11-9.41-10.86-9.58-5.75-.17-10.2,3.84-9.95,8.96,2.33,47.42-24.98,89.98-52.28,131.09.13-1.5.3-2.99.48-4.49,1.62-.58,3.08-1.52,4.19-2.85,3.1-3.74,2.34-9.06-1.51-12.51.68-3.21,1.4-6.37,2.1-9.46l5.24-22.96c4.45-1.25,7.36-5.08,6.76-9.54l-1.7-12.64,7.12-31.2c27.24-23.98,40.82-56.58,49.41-88.54ZM347.24,630.14c-1.83-1.56-3.69-3.1-5.56-4.62,14.01,1.12,28.11-1.64,39.6-7.95,1.19,4.11,2.61,8.21,4.32,12.31.48,1.16,1.24,2.16,2.11,3.06-7.32,7.95-15.01,15.34-23.31,21.68-2.65-9.35-10.1-18.45-17.16-24.48ZM414.18,601.18c-4.01,5.07-8.05,10.16-12.16,15.18-2.48-7.62-4.37-16.58-4.71-27.2.63-1.76.65-3.72-.04-5.62.5-23.67,8.81-55.06,34.41-97.39,3.76-1.57,5.91-5.07,5.51-8.85.93-1.45,1.83-2.89,2.8-4.37,2.98-4.54,6.01-9.11,9.05-13.68,22.69-34.13,45.91-69.16,54.27-108.12,16.02-1.4,27.7-13.48,35.47-21.53l5.27-5.46c-4.94,18.95-14.81,37.03-25.11,55.88-13.57,24.83-27.55,50.39-29.73,78.99-.46.2-.9.44-1.35.65-1.16-6.29-2.43-12.57-3.87-18.83-1.17-5.08-6.68-8.67-12.32-8.02-5.63.65-9.25,5.3-8.08,10.38,6.45,28,9.99,56.49,10.52,84.68.02.91.21,1.78.5,2.63-1.02,1.04-1.79,2.3-2.14,3.77-.19.81-.21,1.63-.15,2.44-2.08,1.96-4.14,3.94-6.18,5.93-1.39-6.07-4.92-12.04-9.06-16.2-7.29-7.33-8.35-10.71-8.51-11.6,3.62-3.57,3.19-9.3-1.03-12.93-4.29-3.69-10.88-3.81-14.71-.27-6.45,5.97-10.1,17.15,9.12,36.48,2.33,2.35,3.71,5.84,3.96,7.8-4.4,1.46-6.96,5.59-5.88,10.02.78,3.17,3.28,5.67,6.39,6.97-7.26,7.88-14.3,15.96-21.08,24.28-3.73,4.59-7.44,9.27-11.18,13.99ZM806.4,713.54l-58.4-10.49c-18.7-3.36-37.96-6.86-55.83-13.1,17.61-12.86,45.71-14,66.5-2.39,5.03,2.81,11.37,1.63,14.15-2.65,2.78-4.28.95-10.03-4.09-12.85-29.75-16.62-68.88-14.49-93.03,5.07-1.55,1.26-2.51,2.88-2.9,4.63-11.39-5.76-22.01-12.89-31.42-21.07,2.58-.1,5.16-.16,7.73-.32,9.6-.6,19.17-1.61,28.42-2.58,14.6-1.54,28.39-2.99,42.49-3.01,28.56-.03,58.23,6.32,87.14,18.14-2.44,13.23-2.68,26.97-.77,40.62ZM968.93,780.68c-12.56-15.39-25.55-31.31-39.62-46.06-14.33-15.02-29.82-28.55-46.09-40.47,6.89-1.23,13.58-3.13,19.89-5.68.48.22.95.44,1.47.61l33.1,10.4c2.07,20.16,12.51,40.36,28.91,55.32,1.32,1.2,2.88,2.06,4.52,2.55,3.55,1.07,7.49.47,10.2-1.87,3.96-3.43,3.8-9.29-.38-13.1-10.85-9.9-18.35-22.74-21.35-36.02l60.41,18.98c1.26.4,2.61.81,3.91,1.21-7.7,15.87-13.16,32.59-16.33,49.79-5.22-1.03-10.3-3.12-14.58-6.15-4.69-3.3-11.19-2.8-14.54,1.12-3.35,3.92-2.29,9.77,2.38,13.07,5.35,3.77,11.44,6.71,17.83,8.63,2.12.64,4.27,1.15,6.44,1.56-.82,9.22-1.01,18.53-.53,27.89-12.26-13.12-23.81-27.27-35.64-41.77ZM1025.55,707.88l-71.21-22.37c-1.78-1.43-4.03-2.42-6.52-2.6-.58-.04-1.14-.02-1.69.02l-21.55-6.77c5.17-4.03,9.82-8.58,13.72-13.65,3.13-4.07,1.74-9.89-3.09-13-4.82-3.11-11.28-2.33-14.41,1.75-13.61,17.72-38.44,27.74-63.47,25.7-17.48-10.46-35.58-19.1-53.93-25.72l88.39-24.35c13.37-3.68,27.21-7.49,41.06-8.01,18.23-.68,38.1,3.9,64.4,14.83,30.36,12.62,58.63,28.7,84.42,47.87-.12,0-.25-.01-.37,0-5.66.51-9.44,5.05-8.43,10.15,1.62,8.19,2.63,16.42,3.1,24.64-16.2,2.22-34.36-3.44-50.41-8.49Z"/>
  <path class="cls-2" d="M662.92,7.5c1.33,0,2.65.37,3.8,1.06,1.44.87,2.43,2.15,2.71,3.51.2.99.02,1.89-.54,2.67-5.89,8.25-14.01,15.26-23.51,20.28-.77.41-1.71.61-2.78.61-.11,0-.21,0-.32,0l-4.06-.15-.98,3.94c-1.33,5.33-3.34,10.7-5.97,15.96l-2.37,4.75,4.88,2.08,50,21.34c1.55.66,2.73,1.8,3.23,3.13.24.63.43,1.59-.03,2.58-.65,1.38-2.35,2.28-4.34,2.28-.66,0-1.33-.1-1.98-.3-.25-.08-.49-.16-.75-.27l-52.16-22.26-3.51-1.5-2.37,2.98c-9.95,12.51-23.3,22.25-38.62,28.15l-4.15,1.6,1.11,4.31c1.1,4.26,2.08,8.67,2.91,13.13l2.65,14.12,6.69-12.72c1.32-2.52,2.73-4.72,4.3-6.74.68-.88,1.94-1.4,3.36-1.4,1.15,0,2.32.35,3.29.98,1.12.73,1.86,1.75,2.04,2.8.12.73-.04,1.38-.48,1.96-2.5,3.21-4.56,7-6.31,11.59l-2.93,7.67,8.16-.92c20.27-2.28,38.58-13.28,47.78-28.72.79-1.33,2.51-2.15,4.49-2.15,1.16,0,2.33.29,3.38.83,1.54.8,2.65,2.06,3.05,3.45.19.68.29,1.7-.31,2.72-5.95,9.99-15.07,18.39-26.37,24.31-11.37,5.95-24.44,9.12-37.79,9.16h-3.99s-.87,3.91-.87,3.91c-1.79,8.05-3.71,15.87-7.45,23.07-.16.31-.38.67-.61,1.05-.18.3-.36.59-.53.9l-4.19,7.3,8.42.19c.51.01,1.01.02,1.52.02.36,0,.73,0,1.09-.02.07,0,.15,0,.22,0,3.04,0,5.87,2.09,6.18,4.57.11.91-.13,1.72-.72,2.42-.8.94-2.14,1.51-3.66,1.55-.61.02-1.23.03-1.84.03-4.84,0-9.83-.59-14.83-1.75l-2.66-.62-1.96,1.9c-5.29,5.15-11.34,9.99-16.68,14.27-4.84,3.87-9.84,7.88-14.38,12.09l-7.27,6.75,9.75,1.83c7.64,1.43,14.81,4.39,20.73,8.54,1.07.75,1.76,1.77,1.89,2.81.09.73-.1,1.38-.57,1.94-.71.83-1.91,1.31-3.29,1.31-1.23,0-2.45-.38-3.45-1.08-6.74-4.72-15.19-7.33-23.79-7.33-1.51,0-3.03.08-4.51.25l-2.56.29-1.25,2.25c-13.14,23.57-8.27,54-2.68,80.67l1.94,9.24,6.56-6.8,60.42-62.63c.72-.75,1.88-1.18,3.17-1.18.62,0,1.24.1,1.84.29l6.34,2.02-4.97,5.15-36.49,37.83-2.78,2.88,2.2,3.34c.35.53.75,1.36.7,2.34-1.4,29.18-15.75,55.43-29.63,80.82-12.36,22.61-24.04,43.97-27.59,67.43l-.85,5.64,5.71.1c3.11.06,6.14.38,9.02.96,2.95.58,5.2,3.09,4.81,5.37-.3,1.77-2.22,3.05-4.56,3.05-.45,0-.91-.05-1.36-.14-2.37-.48-4.82-.72-7.26-.72-.61,0-1.23.02-1.83.05l-4.15.2-.56,4.12c-.25,1.82-2.16,3.14-4.54,3.14-.07,0-.14,0-.22,0-.61-.02-1.21-.12-1.79-.29-.92-.28-1.77-.74-2.48-1.35l-1.48-1.27-1.94.06c-.2,0-.4.01-.6.01-.18,0-.28,0-.33-.01l-6.4-.71.89,6.38c1.81,12.92,3.04,25.85,3.64,38.43l.48,10.09,7.73-6.51c9.05-7.62,18.51-15.06,28.13-22.11l2.08-1.52-.03-2.57c-.01-1.19.59-2.2,1.7-2.87,43.94-26.32,58.64-86.18,32.09-130.71-.59-1-.75-2.01-.44-2.94.31-.94,1.08-1.71,2.18-2.17.7-.29,1.46-.44,2.28-.44,2.3,0,4.57,1.21,5.64,3,5.89,9.88,10.07,20.59,12.43,31.86l1.77,8.46,6.45-5.75c11.08-9.88,20.01-22.16,25.83-35.51l.74-1.69-.54-1.77c-.46-1.5.06-2.86,1.43-3.73l1.53-.98.54-1.74c2.18-6.99,3.55-14.11,4.06-21.15.14-1.93,2.07-3.33,4.6-3.33.28,0,.57.02.86.06.41.05.86.16,1.39.35l7.91,2.71-1.36-8.25c-1.66-10.1-8.53-19.91-15.81-30.3-5.87-8.37-11.94-17.03-15.53-26.44l-2.72-7.1-.42-6.82c-.32-5.29.24-10.82,1.72-16.91l.36-1.49-.53-1.43c-.31-.83-.62-2.44.75-3.78.27-.26.52-.53.78-.8.15-.16.3-.31.45-.47l.8-.8.38-1.06c1.33-3.75,2.8-7.36,4.09-10.55.58-1.44,2.32-2.36,4.41-2.36.21,0,.42,0,.62.03l2.71.24,1.67-2.15c11.45-14.7,20.33-30.65,26.4-47.41.6-1.66,2.44-2.73,4.67-2.73.82,0,1.66.14,2.47.42,2,.69,3.54,2.2,4.01,3.92l1.84,6.71,5.77-3.89c3.52-2.37,6.79-5.09,9.73-8.08l2.01-2.05-.75-2.77c-.04-.13-.07-.26-.11-.37-.13-.83.03-1.59.5-2.26.66-.95,1.86-1.6,3.29-1.78.16-.02.31-.05.47-.08l2.32-.3,1.24-2.15c1.75-3.04,3.02-5.66,3.97-8.25.6-1.61,2.51-2.69,4.77-2.69.81,0,1.62.14,2.41.42,1.77.63,2.79,1.73,3.33,2.55l2.71,4.09,4.14-2.63c3.22-2.04,6.32-4.52,9.21-7.35l1.93-1.89-.53-2.65c-4.42-22.23-13.44-44.45-26.08-64.25-.63-.99-.82-2.05-.55-2.99.28-.93,1.01-1.72,2.06-2.2.73-.33,1.54-.5,2.42-.5,2.27,0,4.45,1.13,5.57,2.87,9.35,14.64,16.71,30.23,21.88,46.32l3.15,9.79,5.76-8.52c1.05-1.55,1.93-2.68,2.86-3.68,3.3-3.53,9.39-7.29,16.6-7.29,2.69,0,5.35.53,7.89,1.57,1.57.64,2.77,1.78,3.3,3.11.25.63.46,1.59.01,2.59-.63,1.41-2.34,2.32-4.37,2.32-.9,0-1.79-.18-2.65-.53l-.07-.03-.07-.03c-.7-.26-1.47-.39-2.29-.39-2.57,0-6.42,1.35-9.24,4.36-2.66,2.84-4.49,6.58-6.27,10.2-.75,1.54-1.61,3.28-2.5,4.9-7.79,14.06-22.33,24.89-39.88,29.69l-1.67.46-1.03,1.39c-8.74,11.82-21.65,20.96-36.36,25.75-.42.13-.93.22-1.56.26l-2.83.18-1.3,2.53c-8.31,16.17-19.07,31.11-31.99,44.38l-.85.87-.35,1.16c-2.94,9.64-3.61,17.49-2.13,24.69,2.18,10.62,9.1,20.49,16.42,30.95,4.39,6.27,9.37,13.37,12.88,20.65l3.92,8.12,4.81-7.62c3.65-5.78,7.09-10.24,10.83-14.01.07-.07.15-.14.23-.21.2-.18.4-.35.59-.54l2.41-2.35-1.28-3.12c-6.21-15.19-9.56-31-9.95-47.01-.39-16.04,2.21-31.49,7.72-45.94.57-1.5,2.31-2.47,4.42-2.47.8,0,1.6.14,2.36.41,1.61.58,2.88,1.68,3.49,3.02.29.63.55,1.6.16,2.63-1.58,4.15-2.97,8.64-4.11,13.34l-2.36,9.7,9.18-3.92c5.25-2.24,10.77-4.09,15.64-5.73,14.84-4.98,28.86-9.69,32.05-21.69.47-1.76,2.45-2.99,4.82-2.99.64,0,1.3.09,1.97.27l.16.05c3.02.91,4.97,3.54,4.36,5.86-4.21,15.8-21.19,21.5-37.62,27.02-11.46,3.84-23.3,7.81-30.18,15.44l-1.29,1.43v1.92c-.01,13.19,2.15,26.38,6.41,39.2l2.07,6.22,5.45-3.64.58-.39c1.02-.68,2.04-1.36,3.06-2.03,6.87-4.52,13.36-8.79,18.75-14.15,6.23-6.19,10.77-13.57,15.56-21.39,6.27-10.23,12.76-20.8,23.4-28.31,2.23-1.57,4.66-3.09,7-4.55,8.47-5.29,17.23-10.77,16.04-18.62-.14-.92.08-1.74.66-2.45.77-.95,2.07-1.53,3.57-1.61.12,0,.23,0,.35,0,2.98,0,5.82,2.06,6.19,4.49,1.69,11.1-7.73,17.97-19.27,25.18l-.24.15c-2.13,1.33-4.33,2.71-6.35,4.13-9.37,6.62-15.21,16.14-21.4,26.21l-.03.05c-4.78,7.79-9.73,15.85-16.53,22.6-5.93,5.89-13.06,10.59-19.99,15.14-3.34,2.2-6.8,4.48-10,6.82l-1.94,1.42-.1,2.4c-.06,1.44-1.06,2.61-2.68,3.14-.56.19-1.18.28-1.83.29l-2.15.02-1.47,1.57c-6.46,6.91-11.21,15.43-15.81,23.68-6.56,11.76-13.34,23.93-25.04,31.95l-1.29.89-.56,1.46c-5.22,13.74-13.54,26.69-24.07,37.43l-11.75,11.99,16.4-3.61c4.1-.9,8.12-1.66,11.96-2.24.32-.05.65-.07.97-.07,2.79,0,5.46,1.79,6.09,4.06.26.93.13,1.82-.36,2.58-.62.96-1.77,1.63-3.16,1.84-12.87,1.97-25.56,5.43-37.72,10.3l-2.78,1.11-.33,2.97c-1.26,11.31-4.34,22.22-9.15,32.43l-6.69,14.22,13.68-7.74c4.19-2.37,8.37-4.7,12.41-6.95,26.06-14.53,50.67-28.25,71.19-47.54,22.82-21.45,38.95-48.61,54.56-74.91,28.5-48.02,57.97-97.68,76.92-151.11l.83-2.35-1.38-2.08c-.12-.17-.24-.34-.36-.51l-.02-.02-21.26-39.62c-.57-1.06-.68-2.14-.31-3.11.39-1.02,1.28-1.84,2.52-2.3.68-.25,1.42-.38,2.19-.38,2.55,0,4.99,1.36,6.08,3.38l11.08,20.65,5.88,10.97,3.34-11.99c1.74-6.24,3.46-12.73,5.25-19.84l.87-3.46-2.99-1.95c-.66-.43-1.21-.93-1.62-1.49-1.08-1.43-1.23-3.01-.44-4.32l2.4-3.96-3.77-2.7c-16.59-11.87-30.53-25.89-41.42-41.69-.68-.99-.92-2.07-.67-3.04.24-.94.91-1.71,1.93-2.22.76-.38,1.65-.58,2.58-.58,2.18,0,4.32,1.07,5.46,2.72,9.83,14.26,22.27,26.95,36.98,37.73l5.89,4.32,1.89-7.06c3.38-12.62,6.52-22.8,9.89-32.05l2.16-5.92-6.26-.75c-.2-.02-.39-.04-.58-.05-6.33-1.18-12.66-2.72-18.82-4.57-19.72-5.94-37.92-15.06-54.1-27.1-1.21-.9-1.96-2.11-2.08-3.32-.09-.91.19-1.71.81-2.4.85-.93,2.23-1.47,3.79-1.47s2.95.48,4.13,1.36c19.62,14.6,42.9,24.7,67.31,29.21.93.17,1.84.56,2.69,1.17l4.93,3.47,2.5-5.49c9.52-20.89,21.5-36.96,36.64-49.14.86-.69,2.06-1.08,3.36-1.08,1.79,0,3.52.69,4.75,1.89,1,.97,1.52,2.13,1.47,3.25-.04.91-.47,1.71-1.24,2.33-15.58,12.53-33.55,32.65-48.8,86.78l-2.61,9.26,9.08-3.19c14.81-5.2,30.2-8.69,45.74-10.35.24-.03.49-.04.73-.04,3.09,0,5.95,1.99,6.51,4.53.28,1.26-.14,2.18-.54,2.73-.74,1.02-2.04,1.7-3.58,1.87-5.35.57-11,1.44-16.79,2.58l-17.72,3.49,16.99,6.12c8.1,2.92,16.04,6.38,23.58,10.28,1.54.8,2.65,2.05,3.05,3.45.19.68.3,1.7-.31,2.72-.79,1.33-2.51,2.16-4.48,2.16-.7,0-1.41-.1-2.1-.31-.43-.13-.86-.31-1.28-.52-14.45-7.48-29.88-12.97-45.87-16.33-.56-.12-1.15-.34-1.85-.7l-2.04-1.06-2.13.86c-2.26.91-4.6,1.93-6.97,3l-1.03.47-.73.86c-.17.2-.34.36-.52.51l-1.33,1.05-.41,1.64-.33,1.3-.39,1.55c-2.65,10.54-5.38,21.45-8.46,32-2.65,9.09-5.75,18.41-9.5,28.51l-2.6,7,7.46-.26c.69-.02,1.42-.04,2.16-.04,3.39,0,6.79.25,10.26.53,3.37.27,6.56.53,9.61.53,1.61,0,3.03-.07,4.34-.22,9.6-1.08,18.01-7.76,20.45-16.24.5-1.75,2.43-2.93,4.8-2.93.68,0,1.37.1,2,.28l.12.04c3.02.91,5,3.62,4.34,5.92-3.34,11.61-14.81,20.46-28.52,22.01-1.83.21-3.75.31-5.87.31-3.59,0-7.23-.29-10.75-.58-3.9-.31-6.84-.51-9.43-.51-3.84,0-8.22.36-11.6,3.03-.57.45-1.33.77-2.26.95l-2.58.51-1.04,2.42c-8.97,20.9-19.7,42.4-33.77,67.66l-5.17,9.28,10.45-1.93c4.33-.8,8.72-1.21,13.06-1.21,2.68,0,5.37.16,7.98.46,3.22.38,5.9,2.94,5.74,5.49-.13,2.1-2.2,3.63-4.91,3.63-.28,0-.57-.02-.85-.05-2.19-.26-4.43-.39-6.65-.39-10.48,0-20.72,2.91-28.84,8.19-.66.43-1.46.71-2.37.82l-2.45.31-1.25,2.14c-5.58,9.56-11.23,19.09-17.01,28.83-3.77,6.35-8.04,13.55-12.36,20.52l-4.17,6.73,7.87.87c3.36.37,6.8.56,10.22.56,30.16,0,58.23-14.17,71.51-36.09.79-1.31,2.51-2.12,4.47-2.12,1.18,0,2.37.29,3.42.85,1.53.81,2.63,2.07,3.02,3.46.19.68.28,1.7-.34,2.71-1.06,1.74-2.27,3.53-3.7,5.46l-12.67,17.02c-.79-.02-1.58-.02-2.37-.02-.38,0-.76,0-1.14,0h-1.51s-1.25.87-1.25.87c-16.15,11-36.57,17.06-57.49,17.06-7.37,0-14.73-.76-21.87-2.25l-3.27-.68-1.88,2.76c-10.88,15.95-21.13,28.24-32.25,38.7-21.23,19.96-47.46,34.58-72.84,48.74-8.21,4.58-16.7,9.31-24.88,14.16-26.32,15.58-51.29,33.4-74.23,52.97l-7.85,6.7,10.12,2.01c11.05,2.2,19.99,3.22,28.13,3.22s14.86-.97,21.34-2.97c14.38-4.43,25.54-13.73,37.37-23.59,3.11-2.59,6.32-5.27,9.6-7.84,17.07-13.41,33.79-20.21,49.7-20.21,3.6,0,7.22.35,10.73,1.04,3.02.61,5.26,3.06,4.88,5.37-.29,1.77-2.21,3.06-4.56,3.06-.44,0-.89-.04-1.33-.13-2.63-.52-5.35-.78-8.09-.78-13.28,0-27.76,6.09-43.06,18.1-3.13,2.46-6.23,5.05-9.23,7.55l-.18.15c-11.97,9.97-24.34,20.29-40.62,25.31-7.44,2.29-15.86,3.46-25.03,3.46-15.64,0-31.2-3.25-44.37-6.44l-2.62-.63-1.97,1.84c-14.54,13.55-28.39,28.06-41.18,43.12l-3.73,4.4,4.88,3.07c14.81,9.32,30.82,17.61,47.56,24.66l1.36.57,1.46-.26c4.67-.84,9.4-1.83,14.07-2.97l2.04-.49,1.08-1.8c6.03-10.1,9.61-21.45,10.36-32.83.13-1.94,2.06-3.36,4.59-3.36.27,0,.55.02.83.05,3.08.36,5.56,2.72,5.4,5.15-.42,6.35-1.66,12.75-3.69,19.04l-3.09,9.55,9.48-3.28c8.88-3.07,18.36-6.75,28.98-11.23l8.23-3.48-7.27-5.2c-1.18-.85-1.97-2.01-2.17-3.18-.14-.84.04-1.6.52-2.27.8-1.11,2.31-1.78,4.04-1.78,1.27,0,2.52.35,3.61,1.02,2.96,1.81,6.14,3.55,9.99,5.48l2.13,1.07,2.17-.97c2.98-1.34,5.96-2.68,8.92-4.02l108.98-49.24,2.34-1.06.5-2.52c.09-.46.24-.83.46-1.14,10.1-14.45,12.73-33.34,7.02-50.54-.31-.95-.24-1.86.22-2.65.56-.97,1.62-1.65,2.97-1.92.4-.08.82-.12,1.24-.12,2.71,0,5.3,1.66,6.03,3.87,3.81,11.47,4.34,23.72,1.55,35.41l-1.93,8.08,8.04-2.08c2.32-.6,4.64-1.1,6.89-1.48l.63-.11.59-.26,30.95-13.98,2.93-1.33v-3.22c0-.15,0-.31,0-.46,1.41-18.24-8.08-37.96-24.2-50.3-1.91-1.47-3.9-2.83-5.83-4.16l-.35-.24c-4.74-3.25-10.11-6.94-14.27-11.69-11.37-12.95-11.03-28.77-9.61-45.2.17-1.91,2.09-3.29,4.59-3.29.31,0,.62.02.95.07,3.07.41,5.48,2.79,5.27,5.2-1.28,14.77-1.68,28.87,7.32,39.13,3.17,3.61,7.45,6.56,12,9.68l.08.05c2.19,1.51,4.46,3.06,6.64,4.74,1.28.98,2.64,2.1,4.15,3.44l4.66,4.11,3.02-5.42c4.85-8.72,10.41-17.05,16.52-24.77l2.88-3.63-3.4-3.14-22.57-20.84c-1.03-.95-1.61-2.14-1.58-3.28.02-.9.42-1.71,1.15-2.34.87-.74,2.1-1.15,3.46-1.15,1.72,0,3.41.65,4.64,1.78l20.54,18.97,3.6,3.32,3.4-3.53c4.75-4.93,9.69-9.58,14.69-13.81.87-.73,2.09-1.14,3.45-1.14,1.73,0,3.43.65,4.65,1.8,1.02.95,1.59,2.14,1.57,3.27-.02.9-.43,1.71-1.17,2.34-18.47,15.63-33.31,34.08-44.13,54.86-.21.4-.54.78-.99,1.12l-3.68,2.83,2.54,3.88c5.91,9.02,9.6,19.06,10.66,29.05l.73,6.87,6.3-2.85,21.36-9.65,2.86-1.29.08-3.14c.27-10.86-1.12-21.65-4.15-32.07-.27-.94-.16-1.83.32-2.6.6-.95,1.74-1.63,3.11-1.86.34-.06.69-.08,1.04-.08,2.75,0,5.42,1.76,6.07,4.01,2.21,7.6,3.61,15.52,4.19,23.53l.51,7.15,6.53-2.95,21.01-9.49,3.54-1.6-.67-3.82-10.59-60.34c-.16-.92.04-1.75.6-2.47.74-.95,2.01-1.55,3.5-1.65.16-.01.32-.02.48-.02,2.97,0,5.73,1.98,6.15,4.41l8.89,50.65,1.03,5.85,5.59-2.01c.71-.25,1.4-.38,2.11-.38h.09c.87,0,1.76.04,2.7.09h.23s1.21.07,1.21.07l1.1-.5,31-14.01,1.01-.46.88-.4,4.08-1.84-1.38-4.26c-11.21-34.54-30.35-67.84-55.35-96.31-.93-1.06-1.36-2.27-1.21-3.41.13-1,.7-1.86,1.64-2.48.9-.6,2.02-.92,3.25-.92,2.07,0,4.07.88,5.37,2.35,7.34,8.35,14.32,17.28,20.77,26.54l5.52,7.93,3.28-9.09c4.88-13.52,8.11-27.55,9.59-41.69.21-2.02,2.27-3.49,4.9-3.49.36,0,.72.03,1.1.08,3.19.48,5.75,3.09,5.49,5.59-2.12,20.13-7.54,39.71-16.11,58.19l-1.09,2.34,1.28,2.24c8.59,15.05,15.72,30.67,21.18,46.43l1.84,5.32,5.06-2.45c3.81-1.85,6.95-3.42,9.87-4.94l5.05-2.64-3.28-4.66c-.49-.7-1.03-1.8-.8-3.09.35-1.91,2.35-3.24,4.86-3.24.5,0,1,.05,1.51.16,3.03.64,6.23,1.26,9.77,1.91l2.02.37,1.7-1.16c1.84-1.25,3.78-2.66,5.95-4.3l5.41-4.1.03.15.84-.81,2.99-2.26-.53-.09,3.49-3.35c6.14-5.88,11.91-12.48,17.16-19.61l.19-.26.11.61,3.49-5.5,4.52-6.14-.76.19c.23-.37.45-.74.68-1.11l.4-.66,1.47-2.39-1.28-2.5c-.42-.82-.79-2.06-.18-3.31.6-1.21,1.98-2.08,3.7-2.31l2.55-.35,1.2-2.28c10.08-19.23,18.05-40.42,25.76-60.92,15.72-41.82,31.98-85.06,67.29-115.35.87-.75,2.1-1.16,3.46-1.16,1.72,0,3.4.65,4.63,1.77,1.03.95,1.61,2.14,1.59,3.27-.02.9-.41,1.71-1.15,2.35-33.96,29.14-49.22,69.72-65.37,112.68-2.94,7.82-5.83,15.47-8.79,22.96l-2,5.07,5.23,1.56c15.95,4.75,32.42,7.15,48.96,7.15,10.47,0,20.76-.99,30.58-2.94.43-.09.87-.13,1.31-.13,2.85,0,5.59,1.77,6.37,4.11.34,1.02.26,2.01-.24,2.87-.6,1.04-1.74,1.77-3.19,2.06-9.14,1.82-18.97,2.86-29.21,3.1l-8.77.21-9.02-.66c-13.75-1.01-27.11-3.45-39.7-7.25-.29-.09-.59-.18-.88-.27l-.61-.19-4.27-1.32-1.79,4.1c-2.76,6.32-5.48,12.11-8.32,17.7l-3,5.91,6.51,1.26c4.74.92,9.63,1.38,14.52,1.38,15.19,0,29.45-4.37,40.15-12.32l7.32-5.43,4.09,5.04c1.27,1.57,1.71,3.85-.17,5.42-12.6,10.49-30.66,16.51-49.54,16.51-8.04,0-16.01-1.06-23.69-3.15l-3.62-.98-1.96,3.2c-9.5,15.51-20,28.18-32.1,38.74l-8.8,7.68,11.63,1.07c7.95.73,15.73,1.1,23.13,1.1,21.16,0,40.19-3.02,56.57-8.97,20.48-7.44,38.28-19.78,55.5-31.7.91-.63,2.05-.96,3.32-.96,2.03,0,4.01.85,5.3,2.28.96,1.06,1.41,2.28,1.28,3.43-.11.99-.66,1.85-1.58,2.49-17.73,12.28-36.07,24.98-57.82,32.89-17.75,6.45-38.26,9.72-60.97,9.72-14.33,0-29.79-1.31-45.93-3.89l-1.82-.29-1.57.96c-8.68,5.3-18.4,10.39-31.52,16.49l-1.45.68-.79,1.39c-.65,1.14-1.85,1.91-3.39,2.16-.26.04-.54.06-.85.06s-.65-.02-1.03-.06l-1.37-.15-1.25.57-1.54.7-2.25,1.02-10.2,4.61-11.67,5.27,12.16,4.03c7.23,2.39,15.41,5.11,23.25,5.83,1.58.14,3.21.22,4.84.22,12.41,0,24.6-4.06,37.54-8.37,12.79-4.26,26.01-8.67,39.54-8.67,6.42,0,12.42.97,18.35,2.96l3.63,1.22,2.12-3.19c.83-1.25,2.51-2.03,4.36-2.03.69,0,1.39.1,2.09.31,3.04.92,5.03,3.64,4.34,5.95-5.8,19.45-7.78,40.7-5.72,61.47l.69,6.98,6.37-2.93c38.96-17.9,75.08-44.02,107.36-77.66.86-.89,2.22-1.41,3.73-1.41,1.53,0,3.03.51,4.23,1.45,1.17.91,1.89,2.12,1.97,3.31.07.91-.23,1.71-.88,2.39-36.83,38.39-78.58,67.16-124.07,85.52l-7.05,2.84.28.27-16.01,5.09c-4.11,1.31-8.17,2.51-12.04,3.58l-5.62,1.54,2.37,5.32c2.33,5.22,4.69,9.85,7.24,14.17l6.11,10.38,3.03-11.66c.77-2.94,1.78-5.95,3.01-8.94l.62-1.5-.38-1.58c-.21-.86-.13-1.64.22-2.35.11-.22.31-.48.6-.8l11.59-12.5,4.36,4.32c1.28,1.27,2.04,3.26.87,4.85l-.14.19h0s-3.69,4.93-3.69,4.93l5.84,2.51c34.4,14.77,70.25,26.53,106.56,34.96,3.22.79,5.42,3.4,4.91,5.83-.39,1.86-2.39,3.16-4.86,3.16-.55,0-1.1-.06-1.65-.19-13.56-3.15-27.17-6.78-40.46-10.79-23.41-7.05-46.68-15.54-69.18-25.22l-5.09-2.19-1.66,5.28c-3.45,10.99-3.83,22.8-1.08,34.17,2.97,12.27,9.37,23.91,16.23,35.74.54.93.68,1.9.41,2.81l-1.14,3.78,3.42,1.98c22.27,12.9,43.12,27.7,61.98,43.99,1.08.94,1.72,2.14,1.73,3.29.01.91-.34,1.71-1.05,2.36-.87.8-2.13,1.25-3.56,1.25-1.64,0-3.28-.6-4.49-1.65-3.61-3.12-7.19-6.04-10.23-8.48l-1.3-1.04.35-.02-4.82-3.58-4.87-3.93.07.36-1.45-1.08c-26.19-19.48-54.95-35.79-85.48-48.48-25.43-10.56-44.79-15.28-62.79-15.28-1.24,0-2.49.02-3.71.07-14.43.54-28.54,4.42-42.2,8.18l-88.39,24.35-15.17,4.18,14.8,5.34c18.03,6.51,35.88,15.02,53.06,25.31l1,.6,1.16.09c2.27.19,4.58.28,6.86.28,24.4,0,47.77-10.7,60.99-27.92.81-1.06,2.3-1.7,3.98-1.7,1.31,0,2.64.39,3.75,1.11,1.31.85,2.19,2.05,2.41,3.31.16.91-.04,1.73-.59,2.44-3.51,4.57-7.82,8.86-12.82,12.75l-7.53,5.86,9.1,2.86,21.55,6.77.9.28.94-.06c.25-.02.5-.03.72-.03.08,0,.16,0,.27,0,1.72.13,2.99.89,3.75,1.5l.74.6.9.28,71.21,22.37c13.73,4.32,29.3,9.21,44.32,9.21,2.86,0,5.64-.18,8.27-.54l4.58-.63-.26-4.61c-.49-8.61-1.56-17.13-3.18-25.33-.18-.93,0-1.76.55-2.49.68-.91,1.85-1.51,3.22-1.68.02,0,.04,0,.06,0,.11,0,.23,0,.35,0l5.63-.31,1.05,5.45c2.89,14.94,3.98,30.16,3.24,45.25l-.2,4.2,4.1.92c.18.04.37.08.55.11h.06s51.81,15.63,51.81,15.63c2.87.86,4.74,3.42,4.09,5.57-.48,1.61-2.29,2.68-4.48,2.68-.67,0-1.34-.1-2-.3l-49.29-14.86-5.54-1.67-.85,5.73c-.56,3.8-1.17,7.26-1.86,10.56l-.72,3.46,3.03,1.83c17.27,10.46,32.46,23.17,45.16,37.77.86.99,1.26,2.11,1.11,3.17-.13.92-.65,1.71-1.53,2.29-.84.55-1.89.85-3.04.85-.68,0-1.36-.1-2.02-.3-1.23-.37-2.29-1.04-3.07-1.94-10.35-11.9-22.54-22.51-36.22-31.53l-5.5-3.63-2.01,6.27c-.64,1.98-1.23,3.76-1.82,5.41-1.68,4.73-3.93,8.67-6.67,11.73l-2.21,2.46,1.41,3,.07.15c.07.15.17.37.19.42,5.38,17.96,15.08,35.38,28.06,50.36.86.99,1.25,2.11,1.1,3.17-.13.92-.66,1.71-1.54,2.29-.84.55-1.89.84-3.03.84-.68,0-1.36-.1-2.02-.3-1.23-.37-2.3-1.05-3.08-1.95-12.93-14.93-22.91-32.31-28.84-50.27l-1.12-3.38-3.56-.05h-.07c-.45,0-.88-.01-1.24-.04l-2.74-.22-1.66,2.19c-.61.81-1.63,1.38-2.86,1.61-.49.09-1,.14-1.51.14-.84,0-1.68-.12-2.49-.37-2.4-.72-4.31-2.42-5.12-4.54-.65-1.7-.59-3.48.17-5.02.77-1.57,2.19-2.74,3.99-3.28,1.07-.32,2.19-.48,3.4-.48,2.21,0,4.21.53,5.8.95l.24.06c.45.12,1.01.27,1.64.38.32.05.65.08.98.08,4.52,0,9.32-5.26,12.22-13.4,5.66-15.89,8.98-32.81,9.85-50.28l.28-5.65-5.64.41c-1.82.13-3.7.2-5.59.2-7.39,0-15.37-1-24.41-3.05l-3.81-.86-1.76,3.48c-16.86,33.3-23.19,70.75-18.3,108.31.1.73-.05,1.41-.43,2.03l-2.24,3.59,3.17,2.8c10.97,9.68,21.83,17.64,33.21,24.32,1.46.86,2.47,2.13,2.77,3.5.22.98.05,1.89-.49,2.68-.85,1.23-2.48,1.96-4.36,1.96-.71,0-1.41-.1-2.1-.31-.56-.17-1.11-.41-1.62-.71-31.95-18.77-56.02-44.73-77.27-69.99l-6.53-7.76-2.18,9.91c-2.27,10.33-.72,21.14,4.36,30.43.54.99.65,1.99.32,2.9-.35.94-1.17,1.7-2.31,2.13-.66.25-1.37.38-2.12.38-.67,0-1.34-.1-2-.3-1.64-.5-3-1.53-3.72-2.85-8.45-15.44-8.69-33.31-.65-47.8l1.64-2.96-2.14-2.63-.21-.26-1.12-1.38c-6.62-8.12-13.12-16.05-19.75-23.84l-4.78-5.61-3.45,6.52c-.08.14-.14.29-.21.44-9.25,15.18-10.51,34.39-3.36,51.46.4.97.4,1.92,0,2.75-.47.96-1.43,1.68-2.69,2.02-.52.14-1.06.21-1.62.21-.66,0-1.33-.1-1.99-.3-1.83-.55-3.3-1.78-3.93-3.27-8.06-19.23-6.63-40.81,3.81-57.73.59-.96,1.77-1.64,3.23-1.86l9.22-1.4-6.27-6.91-.93-1.03c-1.95-2.15-3.97-4.38-6.02-6.52-25.6-26.82-55.93-49.44-87.71-65.42l-6.24-3.14-.96,6.92c-1.67,12.07-1.37,24.53.91,37.04l.62,3.41,3.41.61,20,3.59c2.98.53,5.3,3.02,4.97,5.32-.26,1.81-2.18,3.12-4.57,3.12-.4,0-.82-.04-1.23-.11l-12.09-2.17-8.56-1.54,2.98,8.17c1.69,4.64,3.28,8.44,4.98,11.96.48.98.53,1.96.16,2.83-.4.95-1.29,1.69-2.49,2.09-.59.19-1.22.29-1.88.29s-1.34-.1-2-.3c-1.72-.52-3.15-1.66-3.83-3.05-3.25-6.7-5.97-13.77-8.09-21l-.87-2.97-3.05-.55-65.17-11.71c-16.5-2.96-33.56-6.03-50.13-11.02-5.08-1.53-9.76-3.13-14.31-4.89-21.25-8.21-40.89-20.6-56.81-35.85-1.02-.98-1.54-2.18-1.45-3.36l.38-5.21-5.22-.15c-17.21-.5-34.51-2.29-51.42-5.3l-12.4-2.21,7.5,10.11c2.11,2.84,4.13,5.72,6.19,8.69l2.17,3.1c11.77,16.74,23.65,25.37,35.34,25.65,3.08.07,5.91,2.32,6.05,4.81.05.88-.24,1.66-.86,2.32-.86.91-2.22,1.43-3.74,1.43h-.17c-3.57-.09-7.13-.66-10.6-1.7-12.35-3.72-24.22-13.58-35.26-29.29l-2.21-3.15c-7.5-10.77-15.25-21.9-26.33-27.54l-.44-.22-.47-.13c-12.36-3.49-24.64-7.67-36.51-12.43l-1.25-.5-1.33.19c-.45.06-.9.13-1.34.2-.82.12-1.63.25-2.46.35-.27.03-.54.05-.82.05-.67,0-1.33-.1-1.99-.3-1.98-.6-3.52-2.02-4.02-3.71l-.65-2.17-2.06-.94c-14.07-6.46-27.43-13.65-39.7-21.39l-.29-.18-3.8-2.44-2.81,3.53c-.72.91-1.45,1.81-2.17,2.72-1.12,1.39-2.23,2.79-3.36,4.21-25.39,32.07-51.64,65.23-92.99,76.33-.51.14-1.05.21-1.6.21-.66,0-1.33-.1-1.99-.3-1.84-.55-3.31-1.78-3.93-3.29-.4-.96-.4-1.91.01-2.74.47-.96,1.44-1.68,2.71-2.02,4.15-1.11,8.29-2.55,12.67-4.41l3.12-1.32-.07-3.39c-.02-.71.18-1.72,1.22-2.55,2-1.6,2.98-3.77,2.91-6.44-.19-6.6-6.65-14.99-12.95-20.37-15.31-13.08-32.21-24.7-50.21-34.53-4.01-2.19-8.26-4.39-11.66-6.16-12.67-6.58-25.77-13.38-36.91-22.71-4.51-3.78-8.49-7.79-12.51-11.91l-3.38-3.46-3.57,3.26c-4.09,3.73-8.01,7.78-11.66,12.04l-1.9,2.22,1.01,2.75c.27.74.31,1.45.11,2.1-.46,1.53-2.2,2.6-4.32,2.66l-2.56.07-1.44,2.12c-15.32,22.54-23.26,48.35-22.96,74.66,0,.85-.3,1.6-.92,2.23-.86.87-2.2,1.37-3.68,1.37-.13,0-.27,0-.41-.01-.54-.03-1.09-.13-1.61-.29-2.42-.73-4.19-2.69-4.21-4.65-.3-25.61,6.97-51.04,21.02-73.54l3.47-5.56-6.27-1.88-67.37-20.19c-6.17-1.85-15.12-4.05-22.75-4.05s-12.55,2.05-15.45,6.11c-.8,1.12-2.31,1.78-4.05,1.78-.67,0-1.34-.1-1.99-.3-.57-.17-1.11-.41-1.61-.72-1.35-.82-2.28-2.02-2.54-3.3-.19-.91-.02-1.73.5-2.46,4.67-6.51,12.28-9.67,23.28-9.67,1.09,0,2.22.03,3.37.1l13,.73-9.17-9.24c-.38-.38-.74-.76-1.1-1.15-.3-.32-.6-.64-.9-.95l-2.11-2.18-2.91.87c-.6.18-1.24.27-1.9.27-1.44,0-2.89-.44-4.08-1.25-12.08-8.21-27.65-12.91-42.72-12.91-4.44,0-8.81.41-12.96,1.2-.41.08-.84.12-1.27.12-.7,0-1.41-.11-2.11-.32-2.08-.63-3.73-2.09-4.29-3.82-.33-1.02-.24-2.01.26-2.86.62-1.04,1.76-1.77,3.22-2.05,5.06-.97,10.32-1.46,15.66-1.46,8.89,0,17.8,1.33,26.49,3.97l13.76,4.17-8.2-11.8c-2.57-3.71-4.74-7-6.62-10.07-.61-1-.78-2.02-.48-2.96.3-.94,1.05-1.71,2.14-2.18.71-.31,1.5-.47,2.34-.47,2.27,0,4.52,1.18,5.6,2.95,13.5,22.05,32.03,42.37,53.58,58.78.12.11.24.23.37.34l.79.67.99.3,59.68,17.89,3.18.95,2.11-2.56c4.44-5.39,9.33-10.5,14.53-15.18l4.36-3.93-4.57-3.68c-15.38-12.39-35.77-19.71-55.95-20.09l-4.03-.08-.93,3.93c-.21.89-.8,1.63-1.71,2.15-.81.46-1.78.71-2.82.71-2.07,0-4.1-.95-5.29-2.49l-4.56-5.88c-.93-1.19-1.19-2.58-.7-3.71.52-1.21,1.83-2.07,3.49-2.3,4.27-.59,8.7-.89,13.15-.89,24.73,0,49.46,8.84,67.85,24.26,2.22,1.86,4.55,3.98,7.11,6.48l.02.02.02.02s.05.05.07.07c.02.03.05.05.07.08l.05.05.05.05c2.12,2.07,4.18,4.18,6.28,6.34l.05.05c4.25,4.36,8.27,8.48,12.74,12.23,10.04,8.41,21.9,14.57,34.51,21.12l.36.19c3.82,1.98,7.77,4.03,11.56,6.11,7.08,3.87,14.12,8.08,20.92,12.51l3.72,2.42,2.85-3.4c.84-1,2.29-1.6,3.89-1.6.87,0,1.74.17,2.58.51,6.43,2.6,13.62,3.98,20.79,3.98,12.47,0,24.39-4.12,32.69-11.31.17-.15.39-.3.69-.47l2.8-1.61-.31-3.22c-.27-2.75-.44-5.57-.51-8.62l-.04-1.46-.82-1.21c-8.39-12.44-17.68-25.34-28.74-35.46l-1.18-1.08-1.59-.19c-.46-.06-.84-.13-1.18-.23-1.64-.5-3-1.54-3.72-2.85-.18-.33-.34-.67-.51-1-.16-.32-.32-.65-.49-.97l-.59-1.13-1.05-.71c-5.28-3.57-10.52-6.25-16.04-8.19-10.4-3.66-21.64-4.71-33.54-5.83-15.94-1.48-32.42-3.02-47.04-11.37-4.6-2.63-8.52-5.67-11.76-8.31l-1.57-1.28-2.02.18c-.2.02-.4.03-.61.03-1.3,0-2.56-.36-3.64-1.03-2.72-1.7-6.16-2.63-9.68-2.63-4.08,0-7.83,1.22-10.55,3.42-.86.7-2.06,1.09-3.38,1.09-.68,0-1.36-.1-2.02-.3-1.03-.31-1.98-.86-2.72-1.57-1.01-.97-1.53-2.13-1.49-3.26.04-.91.46-1.71,1.23-2.33,2.13-1.73,4.67-3.09,7.56-4.05l10.08-3.36-9.01-5.62c-26-16.22-55.78-26.51-86.12-29.76-3.05-.33-5.61-2.71-5.5-5.11.1-1.94,2.07-3.41,4.6-3.41.24,0,.49.01.73.04,16.51,1.77,33.04,5.54,49.13,11.21l8.79,3.1-2.28-9.04c-1.46-5.8-1.95-12.26-1.5-19.75l.27-4.4-4.33-.82c-14.03-2.65-27.38-6.83-38.58-10.57l-2.05-.68-1.9,1.03c-.58.31-1.07.5-1.56.59-17.77,3.49-33.81,13.04-44.01,26.2-.87,1.13-2.46,1.8-4.23,1.8-.71,0-1.42-.11-2.11-.31-.67-.2-1.3-.49-1.88-.87-1.39-.9-2.31-2.19-2.54-3.53-.17-.99.05-1.88.65-2.65,7.25-9.35,17.34-17.22,29.18-22.75l11.51-5.39-12.1-3.9c-.63-.2-1.26-.41-1.88-.61-1.28-.42-2.61-.86-3.92-1.26-.46-.14-.92-.28-1.4-.42-18.95-5.71-35.14-8.49-49.5-8.49-9.84,0-18.9,1.37-26.9,4.06-.64.22-1.33.33-2.04.33s-1.41-.11-2.11-.32c-1.8-.54-3.31-1.74-4.03-3.2-.53-1.06-.6-2.12-.2-3.07.43-1.03,1.36-1.83,2.64-2.26,9.28-3.13,19.68-4.71,30.93-4.71,15.84,0,33.44,2.98,53.8,9.12.48.14.96.29,1.45.44,8.3,2.55,16.53,5.38,24.49,8.12,16.61,5.72,32.3,11.12,48.75,14.28l5.07.97.81-5.1.07-.44.09-.59.76-4.89c2.03-13.36,2.94-37.39-13.83-48.26-1.39-.9-2.32-2.19-2.55-3.53-.17-.98.05-1.87.65-2.65.87-1.13,2.46-1.8,4.23-1.8,1.39,0,2.8.42,3.98,1.19,7.07,4.58,12.35,10.85,15.7,18.63l1.76,4.08,4.26-1.27,12.44-3.71c.59-.18,1.21-.26,1.85-.26,2.68,0,5.24,1.51,6.22,3.68.47,1.05.5,2.09.08,3.01-.47,1.03-1.46,1.82-2.79,2.21l-16.1,4.8-3.88,1.16.33,4.04c.53,6.55.23,13.68-.91,21.16l-.78,4.98c-2.66,16.73-5.42,34.04,4.11,47.82.43.62.68,1.3.76,2.06l.29,2.7,2.42,1.23c13.71,6.96,26.48,15.25,37.97,24.65,1.23,1.01,2.45,2.03,3.67,3.06l.04.03h0c4.63,3.88,9,7.54,13.9,10.34,9.06,5.17,19.66,7.07,27.88,8.14l5.85.76-.21-5.9c-1.17-32.96-29.9-66.25-65.42-75.78h-.03s-.04-.02-.04-.02l-.15-.05c-2.82-.85-4.67-3.29-4.12-5.45.42-1.65,2.28-2.8,4.51-2.8.59,0,1.2.08,1.8.24,20.12,5.35,38.83,17.21,52.67,33.38,13.71,16.01,21.42,34.8,21.71,52.89l.07,4.44,4.41.46c9.1.94,18.84,2.26,28.45,5.54l8.66,2.95-2.19-8.88c-2.8-11.35-3.66-22.96-2.57-34.48l.24-2.5-1.86-1.68c-1.01-.91-1.62-2.01-1.74-3.1-1.59-15.22-14.12-26.47-28.65-39.52-8.57-7.69-17.42-15.64-23.99-24.75-10.51-14.6-14.3-31.17-17.96-47.19v-.06c-1.63-7.06-3.16-13.73-5.23-20.36-2.61-8.36-6.63-16.4-11.61-23.25l-2.05-2.82-3.35.95c-.59.17-1.2.25-1.82.25-.68,0-1.37-.1-2.06-.31-1.75-.54-3.19-1.66-3.94-3.07-.36-.68-.72-1.74-.36-2.89.07-.22.14-.45.2-.68.05-.17.1-.34.15-.51l1.12-3.66-3.24-2.03c-5.65-3.55-11.57-5.55-17.61-5.93-3.25-.2-6.11-2.67-6.12-5.28,0-.92.33-1.73,1.01-2.41.92-.92,2.34-1.45,3.91-1.45.15,0,.31,0,.47.02,6.18.39,12.75,2.2,19.01,5.22l5.35,2.58,1.63-5.71c.9-3.15,1.77-6.35,2.62-9.45l.49-1.78,1.15-4.2-4-1.71c-29.38-12.59-52-38.48-57.63-65.94-.26-1.25.17-2.17.58-2.71.75-1.02,2.08-1.69,3.63-1.84.22-.02.44-.03.66-.03,3.07,0,5.99,2.06,6.5,4.58,4.78,23.33,22.8,44.98,47.02,56.52l5.5,2.62,1.5-5.9c2.54-10.02,4.55-18.33,6.32-26.16.41-1.83,2.4-3.11,4.84-3.11.57,0,1.16.07,1.73.21,3.14.77,5.33,3.45,4.79,5.85-4.71,20.84-10.29,42.3-16.59,63.76l-.83,2.84,2.1,2.1c9.01,9.01,15.78,20.64,20.13,34.57,2.17,6.95,3.81,14.11,5.4,21.05,3.62,15.85,7.05,30.83,16.38,43.78,5.83,8.09,13.81,15.25,22.25,22.83,8.25,7.41,16.79,15.06,22.98,23.59l5.13,7.06,3.5-7.99c1.69-3.87,3.61-7.56,5.69-10.97.74-1.22,2.35-1.98,4.18-1.98,1.12,0,2.24.28,3.25.81,1.44.76,2.47,1.95,2.83,3.25.25.91.15,1.75-.31,2.51-15.77,25.9-17.24,58.74-3.91,87.85l.52,1.13.99.76c7.66,5.86,15.09,13.35,22.71,22.92l6.8,8.54,2.02-10.73c.61-3.26,1.35-6.58,2.19-9.88l.52-2.05-1.11-1.8c-.36-.59-.77-1.51-.62-2.49,2.09-14.2-4.26-30.11-16.18-40.54-1.07-.94-1.7-2.14-1.71-3.29,0-.91.35-1.71,1.07-2.36.51-.46,1.21-.8,2.08-1.01l3.9-.94-.08-4.02-.99-49.25c-.02-.93.31-1.75.99-2.43.92-.94,2.35-1.48,3.93-1.48.13,0,.26,0,.39.01,3.26.17,6.17,2.62,6.22,5.24l1.19,59.41c0,.37-.08.78-.26,1.25l-.97,2.49,1.53,2.19c1.36,1.95,2.62,4.01,3.75,6.12l4.76,8.94,4.2-9.22c5.33-11.7,11.83-23.69,19.85-36.68l1.16-1.87-.6-2.12c-3.25-11.49-3.64-24.09-1.21-39.66l.48-3.09-2.56-1.79c-16.56-11.54-35.47-25.32-50.25-42.96-2.66-3.17-5.22-6.59-7.63-10.17l-1.7-2.52-3.02.35c-.3.04-.6.05-.9.05-.68,0-1.34-.09-2.01-.29h-.02s-.07-.03-.07-.03c-27.67-8.83-53-23.78-73.26-43.25-1.08-1.04-1.64-2.27-1.59-3.49.04-.98.5-1.86,1.33-2.53.92-.75,2.2-1.16,3.6-1.16,1.87,0,3.7.72,5,1.97,2.34,2.25,4.86,4.52,7.5,6.76l6.85,5.82,1.33-8.89c2.18-14.6,6.83-29.68,14.62-47.44l1.59-3.62-3.16-2.38c-21.21-15.98-39-35.84-51.47-57.42-.62-1.07-.76-2.16-.42-3.16.35-1.02,1.2-1.84,2.4-2.33.73-.29,1.52-.44,2.36-.44,2.47,0,4.87,1.3,5.99,3.24,10.73,18.58,25.73,35.91,43.36,50.12l4.87,3.92,2.75-5.62c2.27-4.64,4.62-9.32,6.84-13.72,4.03-8.01,7.65-15.25,11.17-22.77l1.66-3.54-3.03-2.46c-7.58-6.16-16.7-11.13-25.55-15.96-3.98-2.17-8.1-4.42-12.09-6.77-20.26-11.93-32.18-25.07-35.45-39.06-.29-1.26.11-2.19.5-2.75.72-1.02,2-1.71,3.53-1.89.27-.03.54-.05.81-.05,3.05,0,5.89,1.96,6.47,4.47,2.61,11.17,12.68,21.99,29.93,32.15,3.81,2.25,7.65,4.34,11.71,6.55,6.98,3.81,14.89,8.12,22,13.11l5.2,3.64,2.32-5.91c3.33-8.45,5.87-16.38,7.78-24.24l.57-2.36-1.5-1.91c-.54-.69-1.16-1.78-1.02-3.06,1.53-14.7.93-29.79-1.79-44.85l-.26-1.43-.99-1.07c-.08-.08-.16-.17-.24-.25-7.89-8.9-20.89-13.53-34.64-18.44-16.92-6.04-36.1-12.88-43.59-29.39-.48-1.05-.51-2.1-.09-3.02.47-1.03,1.46-1.82,2.78-2.22.59-.18,1.22-.27,1.86-.27,2.68,0,5.23,1.51,6.21,3.66,5.43,11.98,19.65,17.06,36.11,22.93,5.69,2.03,12.15,4.33,18.27,7.1l10.83,4.9-4.07-11.17c-8.15-22.33-20.54-42.93-36.84-61.23-.94-1.06-1.38-2.27-1.24-3.42.12-1,.68-1.86,1.61-2.49.9-.61,2.03-.94,3.28-.94,2.05,0,4.04.87,5.34,2.32,28.69,32.21,46.18,71.97,49.26,111.95l.57,7.4,6.64-3.31c3.37-1.68,6.91-2.53,10.54-2.53,1.96,0,3.94.25,5.87.75,3.18.84,5.3,3.47,4.71,5.88-.44,1.8-2.43,3.06-4.84,3.06-.6,0-1.21-.08-1.81-.23-.69-.18-1.42-.27-2.17-.27-4.03,0-8.57,2.63-11.3,6.54-3.14,4.51-4.42,10.3-5.65,15.88l-.59,2.65c-5.56,24.2-16.95,46.83-27.99,68.75-14.15,28.12-27.52,54.69-30.05,84.73-.02.29-.13.64-.33,1.07l-1.85,4.01,3.74,2.34c8.56,5.34,17.68,9.99,27.08,13.81l10.32,4.19-3.73-10.5c-4.6-12.96-5.54-25.79-2.73-37.13.44-1.79,2.43-3.04,4.83-3.04.61,0,1.24.08,1.83.24,3.04.81,5.09,3.29,4.67,5.66l9.74,2.22c6.91-24.71,13.88-48.65,20.69-71.14.52-1.72,2.45-2.88,4.79-2.88.7,0,1.42.11,2.12.32h.04c1.59.5,2.95,1.5,3.74,2.75.39.61.97,1.85.56,3.21-11.06,36.51-21.73,73.99-31.7,111.39l-.56,2.09,1.14,1.84c2.64,4.25,5.66,8.4,8.96,12.34,11.93,14.25,27.31,26.06,39.38,34.75l6.12,4.41,1.68-7.36.13-.57.11-.47,9.63-42.2.2-.88-.12-.9-22.16-164.7c-.13-.99.12-1.87.76-2.63.85-1.01,2.26-1.62,3.87-1.68.09,0,.18,0,.27,0,3.2,0,6.2,2.22,6.55,4.84l14.31,106.4,3.36,24.99,6.43-24.39c.47-1.77,2.44-3.01,4.81-3.01.57,0,1.16.07,1.69.2,1.05.27,2.03.78,2.91,1.51l4.16,3.46,3.12-4.42c6.72-9.53,12.42-20.18,17.42-32.56l.98-2.42-1.43-2.19c-.47-.72-.72-1.45-.76-2.17l-3.39-76.65c-.32-7.22-.64-14.68-3.08-21.56-2.39-6.76-6.71-12.93-11.29-19.45l-31.54-44.91c-.75-1.06-1.01-2.23-.75-3.28.25-1.02.96-1.85,2.05-2.41.82-.42,1.78-.64,2.78-.64,2.28,0,4.53,1.12,5.74,2.84l1.49,2.12,10.46,14.9-1.38-18.15-2.7-35.42c-.07-.97.23-1.84.91-2.56.91-.99,2.38-1.55,4.02-1.55h.05c3.33.03,6.32,2.34,6.53,5.05l4.83,63.46c.04.56-.07,1.1-.35,1.67l-1.27,2.64,1.69,2.4,7.27,10.36c4.55,6.49,9.72,13.85,12.53,21.83,2.84,8.02,3.21,16.42,3.53,23.83l.79,17.78,1.79,40.57,8.1-39.8c.46-2.25.91-4.49,1.35-6.69.38-1.88,2.38-3.19,4.86-3.19.53,0,1.07.06,1.58.18,3.22.74,5.44,3.35,4.95,5.81-1.93,9.56-3.84,18.93-6.09,28.52l9.59,2.79c.91-2.61,2.08-5.31,3.58-8.24l.81-1.58-.37-1.74c-.3-1.39.55-2.64,2.15-3.18l1.51-.52.93-1.3c7.09-9.88,16.82-17.67,26.23-25.2,4.2-3.36,7.97-6.4,11.54-9.54l4.07-3.57-3.88-3.77c-1.12-1.08-2.07-2.94-1.09-4.61.73-1.25,2.35-2.02,4.22-2.02,1.09,0,2.18.27,3.17.77.18.09.37.18.56.27l.15.07,3.83,1.89,2.47-3.48c1.59-2.24,2.78-4.16,3.75-6.03,1.74-3.35,3.17-7.06,4.5-11.66l1.04-3.61-3.18-2c-1.3-.82-2.13-2.06-2.16-3.24-.34-14.31-2.46-29.02-6.31-43.72l-.52-1.97-1.74-1.05c-.84-.5-1.95-1.38-2.5-2.69-.61-1.47-.2-2.61.26-3.32l1.32-2.03-.77-2.29c-2.71-8.02-5.9-15.88-9.48-23.35l-.37-.77-.6-.6c-.82-.82-1.35-1.81-1.48-2.76l-.12-.86-.4-.77c-.3-.57-.59-1.15-.88-1.73-.59-1.18-1.21-2.39-1.89-3.61-.45-.82-.55-1.63-.29-2.37.28-.77.95-1.39,1.9-1.75.52-.2,1.12-.3,1.79-.3.09,0,.19,0,.28,0l3.55.15,1.31-3.3,14.67-36.95c.63-1.59,2.49-2.61,4.73-2.61.87,0,1.74.16,2.54.45,1.69.63,3.03,1.81,3.66,3.23.3.68.57,1.73.13,2.83l-19.19,48.36-.8,2.01.91,1.96c2.72,5.81,5.22,11.88,7.44,18.05l1.82,5.06,4.91-2.18c12.18-5.42,22.91-13.74,31.02-24.05l1.44-1.83-.48-2.28c-.15-.72-.09-1.39.19-1.98.61-1.3,1.99-1.85,2.75-2.05l2.06-.56,1.02-1.87c6.01-10.96,9.03-23.04,8.76-34.92-.02-.93.31-1.75.98-2.44.92-.94,2.35-1.48,3.94-1.48.12,0,.24,0,.37,0,2.7.13,5.21,1.84,5.97,4.07l2.26,6.64,5.54-4.3c4.65-3.61,8.55-7.61,11.61-11.89.86-1.2,2.47-1.92,4.32-1.92M426.72,464.25l10.82-16.29c14.76-22.23,27.79-42.38,37.63-63.86,11.5-25.1,16.57-48.07,15.48-70.24-.04-.87.25-1.65.87-2.3.86-.9,2.22-1.42,3.73-1.42.07,0,.14,0,.21,0,3.08.09,5.89,2.35,6.01,4.83.26,5.35.15,10.9-.34,16.96l-.69,8.57,7.79-3.64c3.42-1.59,7.02-4.09,11.02-7.63l5.23-4.63-6.06-3.46c-1.24-.7-2.08-1.73-2.31-2.82-4.8-22.16-9.19-45.54-5.7-66.5l-9.76-2.12c-10.55,39.26-25.77,66.61-47.88,86.09l-1.21,1.07-.36,1.57-7.12,31.2-.2.88.12.9,1.7,12.64c.3,2.26-1.51,3.59-3.15,4.05l-2.87.8-.66,2.9-5.24,22.96c-.69,3.03-1.42,6.26-2.12,9.54l-.6,2.83,2.15,1.93c1.56,1.4,2.54,3.75,1,5.6-.47.57-1.15,1.02-2.01,1.32l-2.9,1.03-.38,3.06c-.22,1.74-.38,3.27-.5,4.68l-1.67,19.48M400.09,626.61l5.8-7.08c4.16-5.09,8.32-10.32,12.21-15.24,3.43-4.33,7.31-9.24,11.13-13.93,6.5-7.99,13.53-16.08,20.88-24.05l4.83-5.24-6.57-2.76c-1.81-.76-3.11-2.09-3.47-3.55-.54-2.2,1.06-3.58,2.59-4.09l3.92-1.3-.53-4.09c-.39-3.02-2.21-7.5-5.37-10.68-10.76-10.82-12.93-17.87-12.84-21.88.06-2.81,1.23-5.24,3.57-7.41.87-.81,2.14-1.25,3.57-1.25,1.64,0,3.27.6,4.48,1.64,1.07.92,1.71,2.1,1.74,3.25.03.89-.29,1.68-.96,2.33l-1.87,1.84.44,2.58c.6,3.48,3.93,8.28,9.89,14.27,3.72,3.74,6.61,8.89,7.73,13.79l1.99,8.67,6.37-6.21c2.16-2.1,4.16-4.02,6.12-5.87l1.72-1.63-.17-2.36c-.03-.42-.02-.72.03-.94.12-.5.4-.97.85-1.44l2.15-2.2-1-2.91c-.14-.42-.22-.79-.23-1.1-.54-28.54-4.12-57.38-10.64-85.71-.22-.94-.06-1.79.47-2.54.67-.95,1.88-1.59,3.31-1.76.25-.03.5-.04.76-.04,2.89,0,5.57,1.85,6.12,4.22,1.34,5.8,2.59,11.89,3.83,18.61l1.18,6.37,5.87-2.75c.22-.11.45-.22.67-.33.17-.09.35-.18.53-.26l2.78-1.19.23-3.02c2.1-27.53,15.84-52.67,29.13-76.97,10.52-19.24,20.46-37.42,25.56-57.01l4.81-18.47-13.25,13.74-5.27,5.46c-7.21,7.48-18.12,18.78-32.31,20.02l-3.68.32-.78,3.61c-8.2,38.19-31.25,72.87-53.55,106.4-3.39,5.09-6.2,9.34-9.07,13.71-.72,1.1-1.4,2.17-2.09,3.25l-.74,1.17-.94,1.47.18,1.74c.17,1.61-.76,3-2.47,3.72l-1.5.63-.84,1.39c-22.71,37.55-34.53,71.16-35.13,99.87l-.02.93.32.88c.28.77.29,1.52.03,2.23l-.32.89.03.95c.32,9.95,1.94,19.3,4.95,28.59l2.83,8.7M950.13,509.68c-.36,0-.72-.03-1.09-.08-.34-.05-.69-.13-1.05-.24-2.76-.83-4.67-3.13-4.44-5.35.9-8.72-2.74-18.26-9.52-24.98-.08-.09-.17-.2-.28-.31l-1.18-1.21-1.67-.24c-8.19-1.19-16.04-3.79-23.63-6.31-6.98-2.31-14.19-4.7-21.16-5.68l-1.43-.2-1.32.6-9.15,4.13-1.51.68-.8,1.45c-.66,1.18-2.07,1.96-3.77,2.08-.13,0-.26.01-.39.01-.29,0-.61-.02-.95-.06l-1.4-.18-1.29.58-32.52,14.69-2.57,1.16-.34,2.8c-.19,1.55-.39,3.19-.66,4.78-.3,1.79-2.18,3.05-4.56,3.05-.45,0-.9-.05-1.35-.13-.23-.05-.46-.1-.68-.17-1.12-.34-2.13-.97-2.92-1.82l-2.45-2.65-3.29,1.48-30.21,13.65-14.19,6.41,15.27,3.05c14.71,2.94,29.38,7.68,43.58,12.26l.27.09c8.91,2.87,17.32,5.58,25.78,7.9,5.15,1.42,10.7,2.72,16.95,4l3.93.8,1.63-3.67c.21-.47.44-.82.71-1.09,13.64-13.48,25.29-28.57,34.63-44.85.78-1.36,2.51-2.21,4.5-2.21,1.13,0,2.27.28,3.31.8,1.56.78,2.69,2.04,3.11,3.43.2.68.32,1.7-.27,2.73-8.08,14.08-17.94,27.41-29.31,39.64l-6.8,7.31,9.93,1.07c10,1.07,20.24,1.62,30.44,1.62,33.24,0,66.16-5.58,97.87-16.58,2.62-.91,5.22-1.88,7.63-2.78l3.78-1.42-.59-3.99c-2.79-18.85-2.37-37.88,1.23-56.58l.83-4.34-4.2-1.37c-.15-.05-.29-.09-.44-.13-4.55-1.64-9.29-2.43-14.46-2.43-11.29,0-22.98,3.9-35.37,8.02l-.08.03c-8.71,2.91-18.59,6.2-28.5,7.85l-6.96,1.16,3.41,6.18c3.93,7.14,5.62,14.75,4.86,22.03-.21,2.02-2.27,3.49-4.9,3.49M810.53,611.41c-.97,0-1.97-.22-2.88-.64-7.7-3.51-15.7-6.79-24.47-10.01l-1.36-.5-1.42.31c-29.54,6.4-66.31,14.35-103.13,15-1.52.03-3.07.04-4.59.04-23.52,0-45.61-3.07-65.67-9.11-5.94-1.79-11.86-3.92-17.6-6.33l-1.99-.83-1.97.87c-16.76,7.4-36.77,15.79-58.01,21.93l-16.17,4.67,16.09,4.91c32.88,10.04,66.39,15.13,99.6,15.13,6.47,0,12.97-.2,19.33-.6,9.18-.57,18.53-1.56,27.57-2.51h.07c14.42-1.53,29.34-3.1,44.42-3.11h.25c16.96,0,34.57,2.09,52.34,6.21l3.15.73,1.96-2.58c.54-.71,1.35-1.23,2.32-1.5l64.57-17.79,12.49-3.44,30.16-8.31c14.3-3.94,29.08-8,44.96-8.59,1.27-.05,2.58-.07,3.87-.07,5.85,0,12.09.49,18.55,1.46l17.97,2.69-14.06-11.51c-14.23-11.65-27.81-23.74-40.34-35.96-.26-.26-.51-.58-.79-1.02l-1.38-2.2-2.59-.14c-19.31-1.01-38.3-3.9-56.45-8.58l-2.97-.77-2.03,2.31c-14.07,15.99-14.78,40.74-1.7,58.85,1.06,1.47,1.12,3.07.14,4.29l-1.96,2.44-3.85-1.08c-.12-.03-.22-.06-.32-.08-1.32-.44-2.44-1.23-3.18-2.26-13.68-18.93-14.71-43.96-2.57-62.29l3.66-5.53-6.33-2c-3.25-1.03-6.5-2.06-9.69-3.08-23-7.43-44.73-14.45-65.71-14.45-3.71,0-7.35.23-10.8.68l-.74.1-.68.31-64.27,29.04-14.12,6.38,15.18,3.08c36.89,7.48,67.62,14.64,97.69,25.24l.48.17.51.07c.9.12,1.78.44,2.63.94l.4.24.43.16c9.15,3.35,18,6.96,26.28,10.75,1.52.69,2.65,1.85,3.11,3.17.22.63.38,1.58-.12,2.55-.68,1.33-2.37,2.19-4.31,2.19M1038.22,638.04l-6.68-13.2c-4.31-8.52-7.11-15.78-8.82-22.85-.55-2.29-1.01-4.71-1.35-7.19l-.37-2.7-2.47-1.15c-.91-.43-1.7-1.04-2.28-1.78-8.18-10.37-15-21.71-20.25-33.72l-1.63-3.71-3.97.82c-17.21,3.56-34.64,5.68-51.81,6.3l-12.1.44,8.88,8.23c14.78,13.7,30.21,26.68,45.85,38.58,1.41,1.07,2.15,2.54,1.99,3.94l-.45,3.96,3.77,1.32c5.2,1.82,10.55,3.88,16.37,6.3,6.74,2.8,13.72,5.97,22,9.97l13.32,6.45M671.1,607.05c1.44,0,2.9-.01,4.33-.04,20.42-.36,42.04-2.94,70.11-8.37l20.98-4.06-20.61-5.67c-26.83-7.38-54.37-12.87-80.99-18.18-.23-.05-.46-.1-.68-.17-.93-.28-1.79-.77-2.54-1.45l-2.43-2.19-2.98,1.35-46.76,21.12-12.24,5.53,12.88,3.82c18.59,5.52,39.1,8.31,60.93,8.31M347.77,620.76c-1.89,0-3.81-.08-5.69-.23l-16.01-1.28,12.46,10.14c2.07,1.68,3.85,3.17,5.47,4.54,7.73,6.6,13.56,14.84,15.6,22.04l2,7.07,5.84-4.46c7.83-5.98,15.67-13.26,23.95-22.27l3.19-3.47-3.28-3.39c-.54-.56-.9-1.06-1.09-1.51-1.56-3.75-2.95-7.71-4.13-11.79l-1.74-5.99-5.47,3c-9.03,4.96-19.79,7.58-31.11,7.58M676.32,689.14l1.38-6.31c.15-.71.54-1.32,1.16-1.81,12.05-9.75,28.46-15.13,46.22-15.13,14.64,0,28.9,3.64,41.23,10.53,1.41.79,2.4,1.98,2.72,3.27.22.91.09,1.74-.39,2.48-.76,1.17-2.35,1.9-4.14,1.9-1.17,0-2.35-.31-3.39-.89-10.15-5.66-22.01-8.66-34.31-8.66-14.18,0-27.52,4.04-37.57,11.38l-7.69,5.62,8.99,3.14c18.43,6.43,38.7,10.08,56.59,13.3l58.41,10.49,6.79,1.22-.96-6.84c-1.85-13.22-1.6-26.34.74-39.02l.74-4-3.76-1.54c-30.05-12.29-59.93-18.52-88.81-18.52h-.23c-14.35.02-28.26,1.48-43.01,3.04-9.16.97-18.63,1.97-28.2,2.56-1.78.11-3.54.17-5.42.23-.73.02-1.46.05-2.19.08l-12.61.48,9.52,8.28c9.74,8.47,20.65,15.79,32.44,21.76l5.76,2.92M1010.27,835.87l-.7-13.68c-.46-8.99-.29-18.13.51-27.19l.4-4.51-4.45-.84c-2.09-.4-4.08-.88-5.92-1.43-5.88-1.77-11.55-4.52-16.38-7.93-1.24-.88-2.05-2.09-2.2-3.32-.11-.91.13-1.72.73-2.42.84-.99,2.25-1.55,3.86-1.55,1.42,0,2.84.45,4,1.26,4.77,3.37,10.47,5.78,16.49,6.97l4.97.98.92-4.98c3.09-16.81,8.45-33.13,15.91-48.51l2.54-5.23-5.55-1.73c-.55-.17-1.12-.35-1.68-.52-.75-.23-1.5-.46-2.21-.69l-60.41-18.98-8.29-2.61,1.92,8.48c3.26,14.42,11.38,28.13,22.86,38.61,1.04.95,1.63,2.14,1.61,3.28-.01.9-.4,1.71-1.14,2.35-.87.75-2.1,1.17-3.47,1.17-.68,0-1.36-.1-2.02-.3-.97-.29-1.87-.8-2.6-1.46-15.39-14.04-25.34-33.04-27.3-52.14l-.34-3.27-3.14-.99-33.1-10.4c-.19-.06-.5-.2-.85-.37l-1.97-.92-2.02.82c-5.93,2.4-12.29,4.22-18.9,5.4l-11.5,2.05,9.42,6.9c16.22,11.88,31.51,25.3,45.43,39.89,13.95,14.62,26.87,30.45,39.37,45.77,12.07,14.79,23.47,28.76,35.86,42.03l9.35,10M979.24,223.93c.57,0,1.15.07,1.73.21,3.14.83,5.32,3.5,4.78,5.86-2.51,10.9-9.51,21.02-20.24,29.26l-7.03,5.4,8.26,3.22,24.69,9.63c1.68.65,2.98,1.84,3.59,3.26.29.68.54,1.72.08,2.82-.65,1.56-2.49,2.57-4.68,2.57-.7,0-1.41-.11-2.1-.31-.2-.06-.38-.12-.57-.2l-38.78-15.12-1.84-.72-1.84.74c-14.63,5.88-30.07,8.54-44.57,10.53l-3.41.47-.78,3.35c-1.53,6.56-3.33,12.93-5.52,19.46-.54,1.6-2.29,2.7-4.47,2.79-12.77.53-25.16,3.88-35.84,9.7l-1.95,1.06-.52,2.16c-2.34,9.72-7.05,18.85-13.63,26.41l-4.96,5.7,7.18,2.34c3.78,1.23,6.87,2.35,9.72,3.52,1.66.68,2.93,1.89,3.5,3.31.27.68.49,1.72,0,2.8-.68,1.52-2.51,2.5-4.65,2.5-.95,0-1.89-.19-2.8-.56-7.7-3.17-15.84-5.57-24.18-7.13l-.33-.06-.33-.02c-.63-.03-1.15-.1-1.59-.22h0s-.22-.07-.22-.07l-.34-.11-.35-.06c-3.15-.5-6.33-.88-9.51-1.14l12.75-10.54c9.48-7.83,16.14-18.74,18.75-30.71l.15-.68-.04-.69c-.03-.51.06-1.02.28-1.52l.26-.62.09-.67c1.1-7.95.46-15.8-1.89-23.32-1.29-4.13-3.07-8.53-4.79-12.8-6.04-14.99-12.89-31.98-1.77-44.43.91-1.02,2.39-1.6,4.07-1.6,1.54,0,3.07.5,4.31,1.4,1.3.95,2.12,2.24,2.26,3.54.1.99-.18,1.86-.85,2.61-8.27,9.26-2.59,23.36,2.9,37,1.79,4.44,3.64,9.02,5.02,13.46,1.11,3.56,1.9,7.39,2.34,11.41l.68,6.26,5.94-2.08c6.83-2.4,13.97-4.02,21.24-4.82l3.27-.36.96-3.14c.99-3.23,1.89-6.46,2.75-9.86l.68-2.68-1.92-2c-.7-.73-1.15-1.48-1.33-2.25-.54-2.2,1.02-3.68,2.52-4.27l2.67-1.06.43-2.84c2.28-15.05,1.87-28.54-1.26-41.24-.31-1.26.08-2.2.47-2.76.7-1.02,1.97-1.72,3.49-1.92.29-.04.58-.06.88-.06,3.02,0,5.86,1.94,6.47,4.43,2.85,11.59,3.61,23.65,2.3,36.87l-.64,6.45,6.4-1.02c11.39-1.82,20.36-3.92,28.22-6.6l2.22-.76.84-2.19c.04-.11.08-.21.11-.31.71-1.42,2.47-2.33,4.54-2.33.65,0,1.31.09,1.96.27l1.93.54,1.77-.94c14.68-7.82,24.35-19,27.23-31.47.42-1.82,2.41-3.09,4.84-3.09M969.98,303.27c2.79,0,5.45,1.65,6.32,3.93l22.77,59.83c.07.18.13.48.17.73l.62,3.32-3.84.98c-.1.03-.19.05-.28.08-.43.09-.89.14-1.34.14-.7,0-1.41-.11-2.1-.31-1.98-.6-3.59-1.98-4.22-3.61l-22.77-59.83c-.39-1.03-.36-2.05.11-2.93.55-1.04,1.62-1.79,3.02-2.13.5-.12,1.01-.18,1.54-.18M944.99,345.42c3.16,0,6.16,2.2,6.54,4.79,2.35,15.97,10.44,31.54,22.76,43.86.78.78,1.28,1.69,1.44,2.63l.94,5.46-6.98-1.16c-.17-.03-.33-.05-.5-.08-.17-.02-.39-.06-.45-.07-1.14-.34-2.16-.95-2.96-1.74-13.94-13.93-23.06-31.45-25.7-49.33-.15-.99.1-1.88.73-2.65.83-1.01,2.23-1.63,3.83-1.71.12,0,.23,0,.34,0M662.92,2.5c-3.35,0-6.52,1.4-8.39,4.01-2.9,4.06-6.53,7.68-10.61,10.85-1.38-4.06-5.54-7.21-10.46-7.45-.21-.01-.41-.02-.62-.02-5.65,0-10.04,3.94-9.92,9.04.26,11.38-2.71,22.47-8.15,32.4-2.62.71-4.84,2.35-5.97,4.76-.77,1.65-.92,3.42-.56,5.13-7.48,9.51-17.46,17.38-29.12,22.57-2.25-6.24-4.78-12.4-7.62-18.47l19.19-48.36c1.93-4.86-1.07-10.5-6.69-12.59-1.42-.52-2.88-.76-4.29-.76-4.16,0-7.94,2.14-9.38,5.76l-14.67,36.95c-.16,0-.33-.01-.49-.01-1.22,0-2.43.19-3.59.64-4.73,1.82-6.61,6.85-4.18,11.21.95,1.72,1.8,3.48,2.7,5.22.28,2.06,1.3,4.03,2.89,5.62,3.57,7.45,6.65,15.07,9.25,22.79-1.48,2.28-1.85,5.15-.68,7.97.89,2.14,2.54,3.85,4.54,5.05,3.69,14.08,5.82,28.38,6.15,42.57.07,2.98,1.86,5.69,4.5,7.35-1.09,3.78-2.39,7.39-4.13,10.74-.98,1.89-2.15,3.69-3.4,5.45-.21-.1-.43-.19-.63-.3-1.75-.9-3.63-1.33-5.45-1.33-3.52,0-6.83,1.6-8.53,4.49-2.05,3.49-1.12,7.78,1.92,10.73-3.59,3.16-7.43,6.25-11.37,9.39-9.74,7.8-19.77,15.87-27.17,26.19-4.06,1.39-6.25,5.11-5.43,8.96-1.48,2.9-2.79,5.85-3.85,8.87,2.31-9.84,4.27-19.5,6.12-28.67,1.03-5.12-2.82-10.3-8.73-11.67-.91-.21-1.82-.3-2.71-.3-4.78,0-8.89,2.87-9.76,7.2-.44,2.2-.89,4.43-1.35,6.68l-.79-17.78c-.34-7.76-.73-16.56-3.81-25.28-3.04-8.62-8.41-16.28-13.15-23.04l-7.27-10.36c.61-1.27.94-2.69.83-4.22l-4.83-63.47c-.4-5.29-5.52-9.61-11.47-9.67-.03,0-.07,0-.1,0-5.88,0-10.3,4.23-9.91,9.49l2.7,35.42-1.49-2.12c-2.23-3.18-6.05-4.97-9.84-4.97-1.75,0-3.49.38-5.06,1.19-4.97,2.55-6.36,8.38-3.11,13.01l31.54,44.91c4.38,6.24,8.51,12.14,10.67,18.24,2.18,6.18,2.5,13.26,2.8,20.12l3.39,76.65c.07,1.69.65,3.28,1.57,4.69-4.48,11.1-9.97,21.78-16.86,31.55-1.36-1.13-2.99-2.03-4.87-2.51-.99-.24-1.97-.36-2.93-.36-4.58,0-8.56,2.66-9.64,6.74l-14.31-106.4c-.69-5.14-5.79-9.17-11.51-9.17-.15,0-.31,0-.46,0-5.9.23-10.11,4.69-9.4,9.98l22.16,164.7-9.63,42.2c-.08.34-.16.69-.23,1.03-14.19-10.23-27.78-21.15-38.47-33.91-3.24-3.87-6.08-7.8-8.55-11.77,9.89-37.07,20.52-74.47,31.66-111.23,1.51-5-1.92-10.46-7.66-12.2,0,0-.01,0-.01,0-1.19-.36-2.39-.53-3.56-.53-4.44,0-8.38,2.48-9.57,6.43-7.14,23.57-14.05,47.4-20.72,71.24.87-4.89-2.67-9.86-8.31-11.36-1.05-.27-2.1-.4-3.11-.4-4.62,0-8.65,2.68-9.68,6.84-3.11,12.52-2.02,26.23,2.87,40-9.19-3.73-18-8.23-26.32-13.42.39-.85.69-1.76.78-2.75,2.45-29.08,15.61-55.23,29.54-82.92,11.16-22.16,22.69-45.08,28.38-69.85l.6-2.67c1.18-5.36,2.3-10.42,4.87-14.11,1.79-2.57,4.88-4.4,7.2-4.4.33,0,.64.04.93.11,1.03.26,2.06.39,3.06.39,4.64,0,8.68-2.71,9.7-6.88,1.23-5.07-2.42-10.35-8.3-11.89-2.44-.63-4.83-.91-7.14-.91-4.65,0-8.98,1.16-12.77,3.05-3.14-40.86-20.75-81.48-50.51-114.89-2.32-2.61-5.73-3.99-9.07-3.99-2.17,0-4.3.58-6.09,1.8-4.54,3.09-5.13,9.07-1.3,13.37,16.03,18,28.1,38.32,35.87,59.62-6.19-2.8-12.59-5.09-18.65-7.26-15.39-5.49-28.68-10.23-33.24-20.29-1.83-4.04-6.25-6.6-10.76-6.6-1.11,0-2.22.15-3.3.48-5.49,1.65-8.09,7.06-5.81,12.09,8.36,18.44,28.61,25.66,46.47,32.03,13.2,4.71,25.67,9.16,32.69,17.17.06.07.13.12.19.19,2.6,14.44,3.23,29.05,1.73,43.45-.25,2.41.56,4.75,2.07,6.67-1.93,7.96-4.52,15.83-7.57,23.59-7.22-5.06-14.92-9.28-22.47-13.4-4.03-2.2-7.84-4.27-11.57-6.47-16.03-9.44-25.32-19.19-27.6-28.98-1.12-4.82-6.04-8.34-11.34-8.34-.46,0-.93.03-1.4.08-5.82.69-9.54,5.5-8.31,10.74,3.58,15.37,16.3,29.58,37.78,42.23,4.07,2.4,8.24,4.67,12.26,6.87,9.03,4.93,17.63,9.64,24.76,15.43-3.57,7.64-7.36,15.18-11.11,22.64-2.29,4.56-4.6,9.14-6.86,13.76-17.19-13.85-31.66-30.53-42.17-48.72-2.07-3.59-6.19-5.74-10.32-5.74-1.44,0-2.88.26-4.24.81-5.24,2.12-7.22,7.77-4.42,12.62,12.89,22.31,31.11,42.57,52.79,58.91-6.82,15.56-12.44,31.67-14.98,48.71-2.49-2.12-4.92-4.3-7.27-6.56-2.31-2.22-5.43-3.37-8.46-3.37-2.46,0-4.87.75-6.75,2.29-4.21,3.43-4.23,9.48-.04,13.51,20.81,19.99,46.81,35.35,75.21,44.41.06.02.13.04.2.06,1.15.35,2.3.5,3.42.5.5,0,.99-.03,1.47-.09,2.41,3.57,5.04,7.11,7.95,10.59,14.55,17.36,32.83,31.04,51.22,43.86-2.07,13.29-2.68,27.6,1.34,41.79-7.02,11.36-14.07,23.89-20.15,37.24-1.21-2.27-2.57-4.49-4.07-6.64.38-.98.62-2.03.6-3.16l-1.19-59.41c-.1-5.28-5.02-9.81-10.95-10.13-.22-.01-.44-.02-.65-.02-5.63,0-10.02,3.92-9.92,9.01l.99,49.25c-1.58.38-3.07,1.08-4.27,2.18-3.87,3.51-3.55,9.39.71,13.11,10.68,9.34,16.38,23.49,14.53,36.05-.3,2.05.23,4.08,1.31,5.84-.85,3.37-1.61,6.76-2.25,10.18-7.1-8.91-14.77-17.04-23.59-23.78-12.52-27.35-11.29-58.65,3.64-83.17,2.65-4.35.66-10.07-4.45-12.77-1.79-.94-3.72-1.4-5.59-1.4-3.47,0-6.73,1.55-8.46,4.38-2.27,3.73-4.26,7.6-6,11.57-6.46-8.89-15.14-16.71-23.68-24.37-8.24-7.4-16.03-14.38-21.53-22.03-8.74-12.13-12.05-26.63-15.56-41.97-1.61-7.02-3.27-14.28-5.5-21.42-4.98-15.95-12.66-27.9-21.37-36.61,6.2-21.16,11.82-42.63,16.66-64.06,1.15-5.09-2.61-10.36-8.47-11.8-.99-.24-1.97-.36-2.92-.36-4.69,0-8.76,2.77-9.72,7-1.96,8.68-4.09,17.36-6.29,26.03-22.52-10.72-39.75-30.97-44.27-53-1.01-4.92-5.98-8.58-11.4-8.58-.38,0-.76.02-1.14.05-5.84.56-9.71,5.27-8.63,10.53,6.04,29.45,29.84,56.37,60.55,69.53-1.02,3.73-2.03,7.46-3.09,11.18-7.23-3.49-14.43-5.3-20.86-5.7-.26-.02-.53-.03-.78-.03-5.57,0-9.95,3.85-9.92,8.89.03,5.28,4.87,9.88,10.82,10.24,5.49.35,10.6,2.25,15.26,5.17-.12.39-.23.79-.35,1.18-1.53,4.99,1.88,10.46,7.62,12.22.02,0,.03.01.05.01,1.17.35,2.34.52,3.48.52s2.17-.15,3.18-.44c4.8,6.6,8.52,14.25,10.88,21.8,2.02,6.46,3.53,13.06,5.12,20.04,3.77,16.51,7.68,33.58,18.78,49,6.88,9.55,15.94,17.68,24.71,25.55,13.75,12.35,25.63,23,27.02,36.31.25,2.43,1.51,4.62,3.36,6.29-1.13,11.95-.25,24.18,2.7,36.15-9.78-3.34-19.74-4.77-29.55-5.78-.64-39.76-34.42-79.41-78.09-91.03-1.04-.28-2.08-.41-3.08-.41-4.44,0-8.33,2.57-9.36,6.56-1.23,4.79,2.12,9.85,7.52,11.48.12.04.25.07.37.11,33.66,9.03,60.63,40.43,61.72,71.12-9.55-1.25-18.45-3.19-26.05-7.52-4.53-2.59-8.74-6.12-13.21-9.86-1.24-1.04-2.47-2.07-3.72-3.09-11.9-9.74-24.99-18.19-38.87-25.24-.16-1.48-.66-2.97-1.62-4.37-8.38-12.13-5.79-28.43-3.28-44.2l.78-4.98c1.22-8.04,1.51-15.49.95-22.34l16.1-4.8c5.49-1.64,8.11-7.04,5.84-12.07-1.82-4.05-6.25-6.62-10.77-6.62-1.1,0-2.2.15-3.28.47l-12.44,3.71c-3.74-8.67-9.62-15.69-17.58-20.85-2.06-1.34-4.42-1.99-6.7-1.99-3.22,0-6.29,1.29-8.19,3.74-3.25,4.19-1.85,10.21,3.13,13.43,14.41,9.34,13.46,31.15,11.61,43.32l-.76,4.87c-.05.34-.11.68-.16,1.02-16-3.07-31.63-8.44-48.07-14.1-8.03-2.76-16.32-5.62-24.65-8.17-.49-.15-.98-.3-1.47-.45-20.66-6.23-38.97-9.33-55.24-9.33-11.89,0-22.7,1.66-32.53,4.97-5.41,1.82-7.78,7.32-5.32,12.29,1.4,2.81,4.05,4.85,7.06,5.76,1.15.35,2.35.53,3.55.53s2.46-.19,3.64-.59c7.52-2.53,15.93-3.8,25.31-3.8,13.81,0,29.73,2.75,48.05,8.27.45.14.91.27,1.36.41,1.9.58,3.83,1.23,5.74,1.85-12.37,5.79-23.16,14.09-31.01,24.22-3.25,4.19-1.85,10.21,3.12,13.44,1,.65,2.07,1.13,3.16,1.46,1.17.35,2.37.53,3.55.53,3.22,0,6.28-1.29,8.18-3.74,9.47-12.22,24.43-21.1,41.03-24.36,1.1-.22,2.07-.62,2.97-1.1,12.73,4.25,25.77,8.19,39.23,10.74-.43,7.07-.14,14.23,1.64,21.28-16.23-5.72-33.15-9.63-50.26-11.46-.43-.05-.85-.07-1.27-.07-5.18,0-9.36,3.45-9.59,8.16-.25,5.09,4.23,9.71,9.96,10.32,29.77,3.18,58.85,13.33,84.01,29.03-3.36,1.12-6.47,2.75-9.13,4.91-4.09,3.31-4.12,9.17-.07,13.08,1.36,1.31,3.01,2.24,4.75,2.76,1.13.34,2.3.51,3.46.51,2.38,0,4.7-.72,6.53-2.2,1.88-1.53,4.61-2.3,7.4-2.3,2.49,0,5.02.62,7.04,1.88,1.95,1.22,4.15,1.79,6.29,1.79.35,0,.7-.02,1.04-.05,3.8,3.09,7.81,6.13,12.44,8.77,15.55,8.88,32.58,10.47,49.06,12.01,11.59,1.09,22.54,2.12,32.34,5.57,5.34,1.88,10.26,4.49,14.9,7.62.36.69.67,1.38,1.04,2.07,1.4,2.56,3.87,4.4,6.67,5.24.66.2,1.34.33,2.02.41,10.37,9.49,19.28,21.68,27.97,34.57.07,2.99.24,5.98.53,8.98-.52.3-1.01.63-1.47,1.02-7.63,6.61-18.4,10.09-29.42,10.09-6.41,0-12.91-1.18-18.92-3.61-1.47-.6-2.99-.88-4.46-.88-3.07,0-5.92,1.23-7.73,3.39-6.9-4.5-13.99-8.74-21.26-12.71-3.96-2.16-7.99-4.25-12.01-6.34-12.33-6.4-23.97-12.44-33.6-20.51-4.29-3.6-8.24-7.65-12.41-11.94-2.07-2.12-4.18-4.28-6.36-6.42-.05-.05-.08-.11-.13-.16-.05-.05-.11-.08-.16-.13-2.34-2.29-4.78-4.55-7.39-6.74-19.34-16.22-45.59-25.43-71.07-25.43-4.65,0-9.28.31-13.83.94-3.4.47-6.18,2.45-7.4,5.27-1.22,2.82-.72,6.11,1.34,8.76l4.55,5.88c2.21,2.85,5.75,4.42,9.24,4.42,1.85,0,3.69-.44,5.31-1.37,2.19-1.26,3.58-3.19,4.09-5.34,18.96.36,38.28,7.21,52.91,18.99-5.43,4.89-10.45,10.15-15.04,15.72l-59.68-17.89c-.14-.12-.25-.25-.4-.37-21.14-16.05-39.29-35.95-52.51-57.53-2.06-3.37-5.96-5.34-9.86-5.34-1.48,0-2.96.28-4.34.88-5.01,2.17-6.76,7.7-3.92,12.33,2.13,3.48,4.42,6.91,6.78,10.31-9.08-2.75-18.56-4.18-27.94-4.18-5.6,0-11.17.51-16.6,1.55-5.7,1.1-8.97,6.18-7.29,11.36,1.1,3.41,4.08,6.01,7.61,7.07,1.14.34,2.33.53,3.55.53.73,0,1.47-.07,2.21-.21,3.9-.75,7.94-1.12,12.02-1.12,13.96,0,28.45,4.27,39.91,12.05,2.1,1.42,4.53,2.11,6.89,2.11,1.14,0,2.26-.16,3.33-.48.69.71,1.35,1.44,2.05,2.15-1.25-.07-2.46-.1-3.65-.1-12.55,0-21.72,3.91-27.35,11.75-2.98,4.16-1.42,9.96,3.51,12.94.88.54,1.81.95,2.76,1.23,1.13.34,2.29.51,3.43.51,3.23,0,6.3-1.34,8.11-3.87,2.13-2.97,6.4-4.02,11.39-4.02,7.02,0,15.46,2.09,21.32,3.84l67.37,20.19c-14.28,22.89-22.09,49.37-21.78,76.25.05,4.26,3.34,8.05,7.77,9.38.88.27,1.8.43,2.76.49.24.01.47.02.71.02,5.42,0,9.66-3.75,9.6-8.66-.29-25.49,7.67-50.58,22.09-71.79,4.19-.11,7.86-2.47,8.98-6.22.53-1.76.41-3.57-.21-5.26,3.49-4.07,7.23-7.95,11.23-11.6,4.01,4.11,8.18,8.31,12.87,12.25,11.56,9.69,24.91,16.62,37.82,23.32,3.88,2.01,7.76,4.03,11.57,6.11,17.7,9.66,34.3,21.08,49.36,33.94,6.36,5.43,11.08,12.46,11.2,16.72.04,1.27-.37,1.85-1.03,2.39-2.13,1.71-3.14,4.1-3.09,6.56-3.87,1.64-7.86,3.07-12.02,4.18-5.38,1.44-8.08,6.6-6.04,11.51,1.24,2.99,3.96,5.21,7.11,6.15,1.11.33,2.27.51,3.43.51.97,0,1.94-.12,2.89-.38,42.94-11.53,69.72-45.35,95.62-78.06,1.84-2.33,3.68-4.6,5.52-6.9,0,0,.01.01.02.02,12.92,8.17,26.52,15.45,40.58,21.9,1,3.36,3.86,6.01,7.37,7.06,1.1.33,2.25.51,3.43.51.48,0,.96-.03,1.45-.09,1.31-.17,2.59-.37,3.89-.56,12.08,4.85,24.45,9.06,37.01,12.6,9.92,5.05,17.32,15.65,24.49,25.94l2.21,3.16c11.74,16.7,24.45,27.15,37.91,31.21,3.91,1.18,7.89,1.82,11.93,1.91.1,0,.19,0,.28,0,5.61,0,9.88-3.99,9.59-9.03-.29-5.13-5.19-9.39-10.93-9.52-10.01-.24-20.56-8.15-31.36-23.52l-2.16-3.09c-2.01-2.89-4.09-5.85-6.27-8.8,17.31,3.09,34.78,4.87,52.15,5.38-.19,2.55.78,5.23,2.98,7.34,16.4,15.7,36.62,28.46,58.47,36.91,4.85,1.87,9.74,3.52,14.66,5.01,16.82,5.07,33.98,8.16,50.69,11.16l65.17,11.71c2.17,7.41,4.96,14.7,8.39,21.78,1.34,2.76,3.93,4.76,6.88,5.66,1.11.33,2.27.51,3.44.51s2.31-.17,3.43-.54c5.26-1.72,7.62-7.02,5.28-11.85-1.82-3.76-3.37-7.61-4.79-11.49l12.09,2.17c.71.13,1.42.19,2.11.19,4.83,0,8.9-3.03,9.52-7.42.72-5.02-3.38-9.93-9.04-10.94l-19.99-3.59c-2.16-11.85-2.49-23.83-.88-35.45,31.01,15.59,60.6,37.44,86.34,64.4,2.32,2.43,4.59,4.95,6.87,7.46-2.79.42-5.29,1.84-6.73,4.18-11.28,18.3-12.84,41.58-4.16,62.29,1.25,2.98,3.96,5.18,7.1,6.13,1.11.33,2.26.51,3.43.51.98,0,1.96-.12,2.92-.38,5.37-1.46,8.06-6.62,6-11.53-6.57-15.68-5.39-33.3,3.15-47.15.1-.16.14-.33.23-.49,6.71,7.88,13.26,15.88,19.68,23.76.45.55.89,1.09,1.34,1.64-8.78,15.83-8.62,35.73.64,52.63,1.4,2.56,3.87,4.39,6.66,5.23,1.11.34,2.28.51,3.45.51,1.32,0,2.64-.22,3.89-.7,5.14-1.95,7.2-7.37,4.6-12.11-4.59-8.38-5.81-18.1-3.87-26.95,22.4,26.62,46.76,52.4,78.56,71.08.87.51,1.78.9,2.71,1.18,1.17.35,2.37.52,3.54.52,3.4,0,6.62-1.44,8.47-4.12,3-4.35,1.27-10.32-3.86-13.33-11.79-6.93-22.46-14.95-32.43-23.76.96-1.53,1.4-3.36,1.15-5.32-4.77-36.65,1.41-73.02,17.81-105.41,8.25,1.87,16.85,3.17,25.52,3.17,1.98,0,3.97-.07,5.95-.21-.84,16.72-3.98,33.19-9.57,48.85-2.45,6.89-6.04,10.08-7.51,10.08-.05,0-.1,0-.15-.01-.47-.08-.94-.22-1.42-.35-1.73-.46-4.23-1.12-7.09-1.12-1.53,0-3.16.19-4.84.7-6.47,1.95-9.78,8.62-7.39,14.88,1.41,3.68,4.59,6.41,8.35,7.54,1.26.38,2.59.58,3.93.58.8,0,1.61-.07,2.41-.22,2.56-.47,4.62-1.76,5.94-3.51.56.05,1.1.05,1.65.06,6.12,18.53,16.34,36.43,29.81,51.98,1.45,1.67,3.36,2.84,5.42,3.46,1.13.34,2.3.51,3.46.51,2.05,0,4.07-.54,5.78-1.66,4.45-2.93,5.11-8.71,1.47-12.91-12.52-14.45-21.87-31.23-27.05-48.52-.13-.44-.33-.85-.53-1.26,3.12-3.48,5.73-7.97,7.66-13.39.66-1.84,1.28-3.7,1.88-5.57,13.23,8.72,25.06,18.98,35.2,30.63,1.45,1.66,3.35,2.83,5.4,3.44,1.13.34,2.3.51,3.46.51,2.05,0,4.08-.54,5.8-1.68,4.44-2.94,5.09-8.72,1.44-12.92-13.11-15.07-28.71-28.08-46.34-38.76.75-3.59,1.37-7.21,1.91-10.85l49.29,14.86c1.16.35,2.32.51,3.45.51,4.3,0,8.11-2.41,9.27-6.24,1.46-4.84-1.87-10.12-7.43-11.8l-51.92-15.65c-.28-.08-.56-.11-.84-.18.75-15.4-.34-30.99-3.33-46.44,3.4,2.74,6.79,5.51,10.1,8.37,2.2,1.9,5.02,2.87,7.76,2.87,2.58,0,5.09-.85,6.95-2.57,3.84-3.54,3.48-9.41-.81-13.11-19.37-16.74-40.39-31.59-62.74-44.53.64-2.13.42-4.53-.87-6.76-6.67-11.5-12.89-22.79-15.7-34.4-2.56-10.61-2.16-21.47.99-31.49,22.69,9.77,46,18.27,69.71,25.42,13.47,4.06,27.08,7.69,40.77,10.87.94.22,1.87.32,2.78.32,4.75,0,8.84-2.84,9.75-7.13,1.07-5.11-2.73-10.28-8.63-11.72-36.17-8.4-71.68-20.07-105.76-34.7,0,0,.01-.02.02-.03,2.59-3.5,1.89-8.19-1.35-11.4,46.12-18.62,88.39-47.7,125.81-86.7,3.59-3.74,2.86-9.61-1.63-13.11-2.14-1.67-4.76-2.5-7.3-2.5-2.78,0-5.46.99-7.34,2.95-31.93,33.27-67.43,58.94-105.84,76.58-1.99-20.13-.12-40.57,5.53-59.54,1.49-5-1.95-10.44-7.69-12.17-.01,0-.02,0-.03,0-1.18-.35-2.36-.52-3.5-.52-3.55,0-6.76,1.6-8.53,4.25-6.81-2.29-13.45-3.23-19.94-3.23-14.27,0-27.84,4.5-41.12,8.93-12.48,4.16-24.35,8.12-35.96,8.12-1.47,0-2.93-.06-4.39-.2-7.07-.65-14.4-3.03-22.14-5.6l10.2-4.61c1.26-.57,2.53-1.15,3.8-1.72.53.06,1.06.09,1.59.09s1.09-.04,1.64-.13c3.18-.51,5.62-2.29,6.94-4.63,10.9-5.07,21.74-10.48,32.01-16.76,16.48,2.63,32.07,3.95,46.72,3.95,23.34,0,44.29-3.34,62.67-10.02,22.36-8.12,40.96-21.01,58.96-33.48,4.51-3.12,5.03-9.12,1.16-13.39-2.32-2.56-5.7-3.92-9.01-3.92-2.2,0-4.36.6-6.17,1.85-16.96,11.75-34.5,23.89-54.36,31.11-15.92,5.79-34.27,8.67-54.86,8.67-7.28,0-14.84-.36-22.67-1.08,13.46-11.74,24.13-25.3,33.07-39.89,8.18,2.23,16.64,3.32,25,3.32,19.65,0,38.79-6.05,52.74-17.67,3.8-3.17,4.05-8.47.86-12.41,10.21-.24,20.31-1.26,30.07-3.2,5.69-1.13,8.91-6.24,7.2-11.41-1.48-4.48-6.19-7.53-11.11-7.53-.76,0-1.53.07-2.29.23-9.6,1.91-19.55,2.85-29.6,2.85-15.94,0-32.12-2.36-47.54-6.94,3.03-7.67,5.94-15.37,8.82-23.04,15.92-42.34,30.96-82.34,63.95-110.64,3.98-3.42,3.84-9.28-.31-13.1-2.23-2.05-5.16-3.09-8.01-3.09-2.46,0-4.87.78-6.72,2.36-36.28,31.13-52.77,74.98-68.71,117.39-7.93,21.09-15.68,41.61-25.51,60.36-3.25.44-6.11,2.22-7.5,5.05-1.24,2.52-1.05,5.34.21,7.8-.5.81-.99,1.63-1.5,2.44-.1-.52-.21-1.05-.41-1.58l-22.77-59.83c-1.63-4.3-6.23-7.15-10.99-7.15-.9,0-1.81.1-2.7.32-5.61,1.34-8.59,6.58-6.64,11.7l22.77,59.83c1.22,3.21,4.09,5.61,7.45,6.62,1.14.34,2.34.53,3.54.53.9,0,1.81-.1,2.7-.32.06-.01.1-.04.16-.05-4.96,6.73-10.45,13.07-16.6,18.96-.32-1.88-1.26-3.74-2.83-5.32-11.57-11.56-19.16-26.14-21.35-41.05-.75-5.11-5.83-9.06-11.49-9.06-.2,0-.39,0-.59.01-5.89.28-10.04,4.8-9.26,10.08,2.79,18.93,12.42,37.45,27.11,52.14,1.43,1.43,3.19,2.43,5.05,2.99.52.16,1.05.21,1.58.29-1.88,1.42-3.78,2.81-5.74,4.15-3.18-.58-6.39-1.2-9.64-1.89-.86-.18-1.71-.27-2.54-.27-4.85,0-8.99,2.95-9.78,7.35-.44,2.42.21,4.84,1.63,6.86-3.2,1.68-6.45,3.29-9.73,4.87-5.6-16.16-12.84-32.01-21.56-47.28,8.77-18.91,14.36-38.99,16.55-59.77.55-5.22-3.84-10.18-9.72-11.06-.62-.09-1.23-.14-1.84-.14-5.13,0-9.38,3.3-9.87,7.96-1.46,13.91-4.61,27.47-9.32,40.52-6.49-9.32-13.53-18.34-21.11-26.98-2.32-2.64-5.76-4.05-9.12-4.05-2.14,0-4.25.57-6.03,1.76-4.57,3.05-5.21,9.03-1.41,13.35,24.76,28.2,43.37,60.74,54.35,94.55-.63.28-1.26.57-1.89.86l-31,14.01c-1.05-.05-2.1-.11-3.17-.11-.04,0-.07,0-.11,0-1.36,0-2.62.26-3.78.67l-8.89-50.65c-.85-4.85-5.71-8.54-11.08-8.54-.28,0-.55,0-.83.03-5.68.4-9.56,4.87-8.67,9.98l10.59,60.34-21.01,9.49c-.59-8.25-2.04-16.51-4.37-24.57-1.3-4.48-5.95-7.62-10.87-7.62-.62,0-1.23.05-1.85.15-5.57.92-8.89,5.75-7.43,10.79,2.9,10,4.21,20.36,3.95,30.55l-21.36,9.65c-1.15-10.86-5.12-21.6-11.45-31.26.97-.75,1.8-1.67,2.38-2.78,10.51-20.19,24.95-38.15,42.92-53.35,4.01-3.39,3.91-9.25-.22-13.09-2.23-2.08-5.18-3.13-8.06-3.13-2.44,0-4.83.76-6.67,2.32-5.32,4.5-10.32,9.24-15.07,14.16l-20.54-18.97c-2.23-2.06-5.17-3.11-8.03-3.11-2.46,0-4.86.77-6.7,2.35-3.99,3.41-3.86,9.27.28,13.1l22.57,20.84c-6.36,8.03-12.01,16.53-16.97,25.44-1.43-1.26-2.89-2.49-4.42-3.66-2.32-1.77-4.66-3.38-6.93-4.94-4.27-2.94-8.31-5.71-11.07-8.86-7.7-8.77-7.28-21.75-6.09-35.39.44-5.06-3.83-9.81-9.59-10.58-.54-.07-1.08-.11-1.61-.11-5.04,0-9.17,3.28-9.57,7.86-1.46,16.86-1.83,34.52,10.83,48.93,4.57,5.21,10.22,9.09,15.2,12.51,2.02,1.39,4.05,2.78,5.97,4.25,14.88,11.38,23.61,29.49,22.24,46.14-.02.22.01.43.01.65l-30.95,13.98c-2.44.42-4.87.94-7.3,1.57,2.95-12.36,2.48-25.62-1.67-38.15-1.44-4.34-6-7.29-10.78-7.29-.73,0-1.47.07-2.21.21-5.51,1.1-8.63,6.04-6.97,11.05,5.21,15.7,2.83,32.94-6.37,46.1-.66.94-1.06,1.97-1.27,3.03l-108.98,49.24c-2.96,1.34-5.93,2.68-8.91,4.01-3.25-1.63-6.47-3.36-9.63-5.29-1.94-1.18-4.11-1.75-6.21-1.75-3.23,0-6.29,1.34-8.1,3.86-2.84,3.95-1.54,9.34,2.8,12.44-9.41,3.98-18.95,7.75-28.67,11.11,2.12-6.56,3.47-13.36,3.93-20.25.33-5.08-4.04-9.76-9.8-10.44-.48-.06-.95-.09-1.42-.09-5.11,0-9.28,3.37-9.58,8.03-.71,10.79-4.09,21.28-9.66,30.59-4.55,1.1-9.14,2.07-13.78,2.9-16.33-6.87-32.05-14.98-46.84-24.28,12.75-15.01,26.35-29.26,40.77-42.7,13.79,3.33,29.68,6.58,45.55,6.58,8.97,0,17.93-1.04,26.5-3.68,17.23-5.31,30-15.96,42.35-26.25,3.09-2.57,6.16-5.14,9.3-7.61,14.42-11.33,27.83-17.04,39.97-17.04,2.43,0,4.8.23,7.12.68.78.15,1.55.23,2.3.23,4.76,0,8.79-2.94,9.5-7.25.82-5-3.13-9.93-8.83-11.08-3.87-.76-7.78-1.14-11.71-1.14-17.07,0-34.78,7.12-52.79,21.28-3.28,2.57-6.49,5.25-9.71,7.93-11.42,9.52-22.21,18.52-35.64,22.66-6.27,1.93-12.9,2.75-19.87,2.75-8.56,0-17.62-1.23-27.15-3.12,22.74-19.4,47.3-36.94,73.53-52.47,8.11-4.8,16.58-9.52,24.76-14.09,25.63-14.3,52.14-29.08,73.83-49.46,12.76-11.99,23.38-25.49,32.95-39.52,7.6,1.59,15.28,2.36,22.89,2.36,22.03,0,43.42-6.42,60.31-17.92.36,0,.72,0,1.09,0,6.06,0,12.16.49,18.2,1.46.03,0,.06.02.08.03.96.29,1.96.42,2.96.47,7.93,1.48,15.73,3.76,23.2,6.83,1.55.64,3.15.94,4.7.94,4.01,0,7.67-2.01,9.21-5.45,2.14-4.77-.62-10.49-6.16-12.78-3.3-1.36-6.68-2.55-10.08-3.65,7.19-8.26,12.21-18.07,14.72-28.52,10-5.45,21.55-8.59,33.65-9.09,4.27-.18,7.81-2.61,9.01-6.19,2.32-6.92,4.16-13.52,5.65-19.92,15.5-2.13,31.11-4.95,45.76-10.85l38.78,15.12c.31.12.63.23.94.33,1.18.36,2.37.53,3.54.53,4.09,0,7.81-2.1,9.29-5.64,2.02-4.82-.87-10.5-6.46-12.67l-24.69-9.63c11.5-8.84,19.26-19.94,22.06-32.1,1.17-5.09-2.66-10.33-8.42-11.83-1-.25-1.99-.36-2.96-.36-4.68,0-8.74,2.75-9.71,6.97-2.55,11.08-11.43,21.11-24.71,28.18-1.11-.31-2.22-.46-3.31-.46-4.07,0-7.77,2.08-9.25,5.6-.03.08-.04.17-.07.25-8.65,2.95-17.94,4.89-27.4,6.4,1.36-13.71.58-26.4-2.42-38.56-1.18-4.78-6.07-8.23-11.33-8.23-.5,0-1.01.03-1.51.1-5.8.75-9.46,5.6-8.17,10.84,2.97,12.05,3.35,24.93,1.17,39.29-4.19,1.66-6.6,5.73-5.53,10.11.42,1.72,1.36,3.24,2.58,4.52-.79,3.14-1.67,6.33-2.68,9.62-7.74.85-15.24,2.57-22.35,5.07-.45-4.14-1.26-8.28-2.53-12.36-1.44-4.62-3.33-9.31-5.16-13.84-6.05-15.02-9.58-25.34-3.81-31.8,3.55-3.98,2.58-10.03-2.18-13.52-2.17-1.59-4.76-2.37-7.26-2.37-2.99,0-5.86,1.11-7.79,3.27-13.19,14.76-5.4,34.09.86,49.63,1.77,4.38,3.43,8.52,4.65,12.42,2.18,6.98,2.67,14.18,1.71,21.15-.51,1.19-.75,2.48-.67,3.79-2.35,10.75-8.26,20.66-17.05,27.92,1.41-1.89,2.75-3.83,3.97-5.85,2.73-4.5.66-10.4-4.63-13.19-1.84-.96-3.83-1.42-5.75-1.42-3.59,0-6.97,1.6-8.75,4.53-12.67,20.92-39.64,33.68-67.23,33.68-3.22,0-6.45-.17-9.67-.53,4.24-6.86,8.34-13.75,12.4-20.59,5.67-9.56,11.37-19.17,17.03-28.86,1.59-.2,3.13-.71,4.48-1.59,7.38-4.8,16.64-7.38,26.12-7.38,2.02,0,4.04.12,6.07.36.49.06.97.09,1.44.09,5.3,0,9.6-3.5,9.9-8.31.33-5.25-4.23-10.06-10.15-10.76-2.86-.34-5.72-.5-8.57-.5-4.72,0-9.41.45-13.97,1.29,12.33-22.14,23.97-44.77,33.99-68.12,1.59-.32,3.11-.93,4.39-1.93,1.86-1.47,4.64-1.96,8.51-1.96,2.53,0,5.52.21,9.03.49,3.64.29,7.37.59,11.15.59,2.13,0,4.27-.09,6.43-.34,15.7-1.78,28.87-12.06,32.77-25.59,1.43-4.99-2.01-10.37-7.71-12.09-.04-.01-.08-.02-.12-.03-1.16-.34-2.32-.5-3.45-.5-4.49,0-8.45,2.53-9.61,6.54-1.9,6.59-8.56,11.8-16.21,12.66-1.19.13-2.45.19-3.78.19-2.84,0-5.96-.25-9.21-.51-3.35-.27-6.97-.54-10.66-.54-.77,0-1.55.01-2.33.04,3.52-9.49,6.77-19.09,9.62-28.85,3.08-10.56,5.84-21.55,8.51-32.18.24-.95.48-1.9.72-2.84.45-.36.87-.76,1.24-1.21,2.23-1.02,4.49-1.99,6.78-2.92.97.5,2,.92,3.12,1.16,15.54,3.26,30.54,8.6,44.6,15.88.7.36,1.41.65,2.14.87,1.17.35,2.37.52,3.54.52,3.63,0,7.02-1.64,8.78-4.61,2.68-4.52.56-10.41-4.74-13.16-7.82-4.05-15.9-7.57-24.18-10.55,5.4-1.06,10.85-1.93,16.35-2.52,5.83-.62,9.62-5.39,8.47-10.64-1.07-4.88-6.02-8.45-11.39-8.45-.42,0-.84.02-1.26.07-16.12,1.73-31.93,5.35-46.88,10.61,9.18-32.59,21.46-63.59,47.12-84.24,4.1-3.3,4.16-9.15.12-13.07-2.24-2.18-5.28-3.3-8.24-3.3-2.36,0-4.68.72-6.5,2.18-17.46,14.05-29.25,31.65-38.05,50.96-1.35-.95-2.92-1.67-4.67-2-23.66-4.37-46.22-14.16-65.23-28.3-2.11-1.57-4.65-2.35-7.11-2.35-2.86,0-5.62,1.05-7.49,3.1-3.49,3.83-2.6,9.69,1.98,13.09,16.6,12.36,35.56,21.83,55.64,27.88,6.4,1.93,12.91,3.51,19.5,4.73.25.05.5.04.75.07-3.85,10.58-7.08,21.48-10.02,32.47-14.09-10.32-26.31-22.74-35.82-36.53-2.15-3.11-5.88-4.88-9.58-4.88-1.66,0-3.32.36-4.82,1.11-4.84,2.43-6.24,8.05-3.13,12.57,11.24,16.3,25.82,30.89,42.63,42.92-1.78,2.94-1.67,6.74.72,9.92.8,1.06,1.79,1.95,2.88,2.66-1.67,6.62-3.41,13.21-5.22,19.73l-11.08-20.65c-2.01-3.74-6.23-6.01-10.48-6.01-1.33,0-2.66.22-3.93.69-5.33,1.97-7.51,7.55-4.88,12.46l21.34,39.77c.15.28.36.52.54.78-18.76,52.9-48.06,102.29-76.51,150.23-15.43,25.98-31.37,52.84-53.69,73.81-20.07,18.86-44.42,32.44-70.2,46.82-4.1,2.29-8.26,4.61-12.44,6.97,5.04-10.71,8.28-22.21,9.59-34,11.6-4.64,23.87-8.05,36.61-10,5.58-.86,8.98-5.64,7.58-10.69-1.25-4.53-5.93-7.73-10.91-7.73-.57,0-1.15.04-1.72.13-4.14.63-8.23,1.41-12.28,2.3,11.1-11.33,19.69-24.7,25.18-39.16,12.67-8.68,19.73-21.34,26.58-33.64,4.68-8.38,9.12-16.31,15.1-22.7,1.13,0,2.27-.18,3.36-.54,3.73-1.23,5.96-4.28,6.11-7.67,3.09-2.26,6.4-4.44,9.8-6.68,7.11-4.68,14.47-9.53,20.76-15.77,7.25-7.2,12.36-15.53,17.3-23.59,5.91-9.63,11.49-18.73,20.02-24.74,1.98-1.4,4.16-2.75,6.36-4.13,10.08-6.29,23.89-14.92,21.57-30.17-.75-4.94-5.67-8.74-11.13-8.74-.2,0-.4,0-.6.02-5.7.3-9.69,4.69-8.92,9.8.65,4.28-5.29,8.35-13.74,13.63-2.41,1.51-4.9,3.06-7.23,4.71-11.48,8.11-18.24,19.13-24.78,29.79-4.64,7.56-9.02,14.7-14.82,20.46-5.03,5-11.32,9.13-17.98,13.52-1.22.8-2.44,1.62-3.67,2.44-4.1-12.32-6.17-25.04-6.16-37.62,5.92-6.56,16.66-10.22,28.06-14.05,16.85-5.66,35.96-12.07,40.86-30.47,1.32-4.96-2.14-10.24-7.75-11.93-.1-.03-.2-.06-.3-.09-1.1-.3-2.2-.44-3.26-.44-4.56,0-8.56,2.62-9.65,6.7-2.33,8.77-12.44,12.74-28.81,18.23-5.23,1.75-10.71,3.61-16.01,5.87,1.05-4.32,2.34-8.58,3.92-12.74,1.81-4.73-1.16-10.16-6.62-12.14-1.35-.48-2.73-.71-4.06-.71-4.07,0-7.74,2.13-9.1,5.69-11.58,30.33-10.65,65.05,2.28,96.63-.29.28-.6.52-.88.81-4.53,4.58-8.21,9.64-11.5,14.86-3.64-7.55-8.6-14.66-13.29-21.34-7.02-10.02-13.65-19.48-15.62-29.09-1.5-7.3-.22-14.87,2.02-22.23,13.21-13.58,24.34-29.02,32.85-45.58.94-.06,1.88-.2,2.79-.49,15.96-5.19,29.58-15.01,38.83-27.53,18.54-5.08,34.44-16.76,42.93-32.09.93-1.68,1.77-3.4,2.62-5.12,1.69-3.44,3.28-6.69,5.43-8.99,1.81-1.93,4.32-2.77,5.59-2.77.22,0,.41.03.55.08,1.49.6,3.04.89,4.53.89,3.88,0,7.44-1.94,8.93-5.28,2.07-4.63-.62-10.16-5.98-12.36-3.3-1.35-6.6-1.94-9.79-1.94-8.17,0-15.59,3.89-20.25,8.88-1.29,1.38-2.36,2.83-3.35,4.29-5.27-16.4-12.74-32.3-22.43-47.48-2.1-3.28-5.95-5.18-9.78-5.18-1.54,0-3.08.31-4.49.95-4.95,2.27-6.58,7.83-3.65,12.42,12.39,19.41,21.1,40.97,25.39,62.54-2.53,2.48-5.31,4.75-8.39,6.7-1.3-1.96-3.29-3.61-5.84-4.51-1.35-.48-2.73-.7-4.07-.7-4.23,0-8.08,2.24-9.46,5.96-.96,2.6-2.22,5.07-3.61,7.49-.11.01-.21.04-.32.06-5.62.69-9.2,5.37-7.98,10.44.02.08.07.15.1.24-2.7,2.74-5.69,5.23-8.96,7.44-.88-3.19-3.47-6.03-7.19-7.32-1.38-.48-2.77-.7-4.11-.7-4.27,0-8.02,2.29-9.38,6.03-5.93,16.39-14.69,31.98-25.64,46.05-.36-.03-.71-.05-1.06-.05-4,0-7.64,2.01-9.05,5.48-1.37,3.38-2.82,6.98-4.16,10.75-.4.4-.78.83-1.19,1.23-2.53,2.48-3.11,5.95-1.94,9.09-1.43,5.87-2.25,12.04-1.86,18.4-1.1-.35-2.23-.52-3.35-.52-2.56,0-5.03.91-6.76,2.7l-60.42,62.64c-6.01-28.7-9.66-56,2.16-77.21,1.3-.15,2.62-.22,3.95-.22,7.35,0,14.92,2.22,20.92,6.42,1.91,1.33,4.15,1.99,6.32,1.99,2.75,0,5.38-1.04,7.1-3.07,3.08-3.63,2.07-9.04-2.26-12.07-6.67-4.67-14.55-7.83-22.68-9.36,4.35-4.03,9.15-7.89,14.11-11.86,5.8-4.64,11.68-9.37,17.04-14.59,5.27,1.22,10.66,1.88,15.96,1.88.67,0,1.34-.01,2-.03,5.72-.18,9.83-4.48,9.18-9.59-.63-5.01-5.58-8.95-11.14-8.95-.13,0-.25,0-.38,0-.31,0-.62.01-.93.01-.47,0-.94,0-1.41-.02.41-.72.86-1.4,1.25-2.13,4.06-7.82,6.08-16.15,7.9-24.28,28.77-.09,55.32-13.89,68.44-35.91,2.69-4.52.58-10.41-4.72-13.17-1.82-.95-3.78-1.4-5.68-1.4-3.62,0-7.02,1.63-8.78,4.59-8.55,14.36-25.51,24.23-44.04,26.31,1.42-3.73,3.19-7.22,5.59-10.31,2.91-3.75,1.67-9.13-2.78-12.02-1.85-1.2-3.97-1.79-6.01-1.79-2.87,0-5.61,1.15-7.31,3.34-1.87,2.41-3.43,4.92-4.78,7.49-.85-4.5-1.83-8.99-2.99-13.46,16.4-6.32,30.44-16.75,40.74-29.7l52.16,22.26c.42.18.84.33,1.27.46,1.14.34,2.3.51,3.42.51,3.82,0,7.33-1.89,8.87-5.16,2.15-4.59-.43-10.15-5.76-12.43l-50-21.34c2.72-5.44,4.88-11.12,6.34-16.99.17,0,.34,0,.5,0,1.77,0,3.53-.36,5.12-1.19,10.18-5.38,18.91-12.92,25.24-21.8,3.07-4.31,1.44-10.29-3.65-13.37-2-1.21-4.23-1.79-6.39-1.79h0ZM433.37,445.19c.13-1.5.3-2.99.48-4.49,1.62-.58,3.08-1.52,4.19-2.85,3.1-3.74,2.34-9.06-1.51-12.51.68-3.21,1.4-6.37,2.1-9.46l5.24-22.96c4.45-1.25,7.36-5.08,6.76-9.54l-1.7-12.64,7.12-31.2c27.24-23.98,40.82-56.58,49.41-88.54-3.51,21.14.57,44.45,5.75,68.38.56,2.59,2.36,4.76,4.72,6.11-3.22,2.85-6.5,5.29-9.82,6.84.47-5.78.64-11.63.35-17.61-.25-5.12-5.11-9.41-10.86-9.58-.12,0-.24,0-.36,0-5.57,0-9.84,3.95-9.59,8.96,2.33,47.42-24.98,89.98-52.28,131.09h0ZM519.96,474.29c4.74,0,8.76-2.91,9.49-7.21.85-4.99-3.11-9.99-8.77-11.11-3.28-.66-6.6-.99-9.9-1.05,3.41-22.52,14.94-43.66,27.04-65.78,14.15-25.88,28.78-52.64,30.23-82.98.09-1.9-.48-3.74-1.52-5.33l36.49-37.83c3.76,9.83,10,18.8,16.11,27.52,7.15,10.2,13.5,19.3,14.97,28.24-.77-.26-1.56-.47-2.4-.58-.5-.06-1-.09-1.49-.09-5.09,0-9.24,3.34-9.58,7.97-.5,6.81-1.82,13.52-3.85,20.03-3.3,2.12-4.61,5.84-3.52,9.41-5.53,12.7-13.92,24.28-24.57,33.77-2.4-11.47-6.69-22.76-13.03-33.39-2.04-3.42-5.99-5.44-9.93-5.44-1.44,0-2.88.27-4.22.83-5.04,2.12-6.87,7.62-4.09,12.28,25.16,42.21,11.25,98.93-30.37,123.86-2.76,1.65-4.16,4.37-4.13,7.22-9.74,7.14-19.21,14.58-28.4,22.32-.62-12.95-1.87-25.93-3.68-38.89.29.03.59.04.89.04.25,0,.5,0,.76-.01,1.21,1.05,2.68,1.86,4.3,2.35.98.3,2.02.47,3.09.5.12,0,.25,0,.37,0,5,0,8.92-3.19,9.5-7.47.53-.03,1.06-.04,1.59-.04,2.09,0,4.2.2,6.28.62.79.16,1.58.24,2.35.24h0ZM544.06,324.13c-4.94,18.95-14.81,37.03-25.11,55.88-13.57,24.83-27.55,50.39-29.73,78.99-.46.2-.9.44-1.35.65-1.16-6.29-2.43-12.57-3.87-18.83-1.07-4.68-5.84-8.09-10.99-8.09-.44,0-.89.03-1.33.08-5.63.65-9.25,5.3-8.08,10.38,6.45,28,9.99,56.49,10.52,84.68.02.91.21,1.78.5,2.63-1.02,1.04-1.79,2.3-2.14,3.77-.19.81-.21,1.63-.15,2.44-2.08,1.96-4.14,3.94-6.18,5.93-1.39-6.07-4.92-12.04-9.06-16.2-7.29-7.33-8.35-10.71-8.51-11.6,3.62-3.57,3.19-9.3-1.03-12.93-2.2-1.89-5.01-2.85-7.74-2.85-2.59,0-5.1.86-6.97,2.58-6.45,5.97-10.1,17.15,9.12,36.48,2.33,2.35,3.71,5.84,3.96,7.8-4.4,1.46-6.96,5.59-5.88,10.02.78,3.17,3.28,5.67,6.39,6.97-7.26,7.88-14.3,15.96-21.08,24.28-3.73,4.59-7.44,9.27-11.18,13.99-4.01,5.07-8.05,10.16-12.16,15.18-2.48-7.62-4.37-16.58-4.71-27.2.63-1.76.65-3.72-.04-5.62.5-23.67,8.81-55.06,34.41-97.39,3.76-1.57,5.91-5.07,5.51-8.85.93-1.45,1.83-2.89,2.8-4.37,2.98-4.54,6.01-9.11,9.05-13.68,22.69-34.13,45.91-69.16,54.27-108.12,16.02-1.4,27.7-13.48,35.47-21.53l5.27-5.46h0ZM1047.29,358.17c-4.53,0-9.09-.43-13.57-1.29,2.99-5.89,5.79-11.89,8.44-17.96.51.16,1.01.32,1.52.48,13.23,3.99,27,6.43,40.77,7.45-10.02,7.44-23.47,11.33-37.17,11.33h0ZM950.13,514.68c5.14,0,9.39-3.3,9.87-7.98.87-8.4-1.13-17.12-5.46-24.96,10.13-1.69,19.79-4.88,29.25-8.04,12.28-4.09,23.37-7.8,33.87-7.8,4.41,0,8.72.65,12.97,2.21.13.05.26.06.39.11-3.66,19-4.13,38.84-1.26,58.26-2.5.94-4.99,1.87-7.51,2.74-31.25,10.84-64.01,16.3-96.23,16.3-10.04,0-20.03-.53-29.9-1.59,11.59-12.46,21.66-26.06,29.98-40.55,2.62-4.56.41-10.43-4.93-13.12-1.79-.91-3.7-1.34-5.56-1.34-3.67,0-7.1,1.69-8.84,4.72-9.12,15.88-20.49,30.61-33.81,43.78-.79.78-1.34,1.67-1.76,2.61-5.6-1.14-11.15-2.42-16.63-3.92-8.44-2.32-16.89-5.05-25.84-7.93-14.56-4.7-29.34-9.45-44.13-12.41l30.21-13.65c1.33,1.44,3.09,2.6,5.15,3.22.37.11.75.21,1.13.28.79.16,1.57.23,2.34.23,4.74,0,8.77-2.92,9.49-7.22.28-1.66.49-3.34.69-5.01l32.52-14.69c.52.07,1.05.1,1.58.1.25,0,.5,0,.75-.03,3.53-.25,6.36-2.08,7.79-4.65l9.15-4.13c6.47.91,13.23,3.14,20.28,5.48,7.81,2.59,15.85,5.25,24.48,6.51.07.07.11.15.18.21,5.83,5.68,8.99,13.75,8.23,21.06-.49,4.68,2.98,9.15,7.97,10.65.57.17,1.16.31,1.76.4.62.09,1.23.14,1.82.14h0ZM810.53,616.41c3.71,0,7.16-1.78,8.76-4.92,2.31-4.52-.1-10.14-5.37-12.55-8.76-4-17.65-7.61-26.64-10.89-1.37-.81-2.9-1.37-4.51-1.59-32.18-11.35-65.5-18.76-98.36-25.42l64.27-29.04c3.34-.44,6.73-.64,10.16-.64,20.11,0,41.67,6.94,64.18,14.21,3.2,1.03,6.46,2.06,9.72,3.09-13.16,19.86-12.48,47,2.68,67.98,1.47,2.04,3.63,3.47,5.99,4.18.07.02.14.02.22.04l-64.57,17.79c-2.14.59-3.83,1.78-4.98,3.3-17.93-4.15-35.87-6.33-53.47-6.33-.09,0-.17,0-.26,0-15.34.01-30.39,1.6-44.95,3.13-9.01.95-18.32,1.93-27.42,2.5-6.31.39-12.66.59-19.02.59-32.81,0-66.2-5.16-98.14-14.92,20.42-5.9,39.78-13.84,58.64-22.16,6.01,2.52,12.06,4.69,18.09,6.51,24.17,7.29,48.01,9.32,67.11,9.32,1.59,0,3.15-.01,4.67-.04,36.1-.63,70.65-7.87,104.1-15.11,8.17,3,16.22,6.26,24.12,9.87,1.61.74,3.31,1.09,4.96,1.09h0ZM1018.11,566.4c-2.62-4.44-4.91-9.02-6.98-13.67,4.1-1.12,8.18-2.34,12.23-3.63-.54.58-1.03,1.21-1.4,1.94-.93,1.84-1.08,3.85-.62,5.77-1.29,3.12-2.38,6.32-3.23,9.59h0ZM852.67,617.82c2.31-2.88,2.46-6.95.01-10.34-11.72-16.22-11.01-38.51,1.4-52.61,18.63,4.8,37.9,7.71,57.44,8.73.43.68.92,1.34,1.54,1.95,12.9,12.57,26.54,24.69,40.66,36.24-6.31-.95-12.77-1.51-19.29-1.51-1.35,0-2.71.02-4.06.08-16.47.61-31.54,4.76-46.12,8.78l-31.58,8.7h0ZM1027.08,627.09c-7.31-3.54-14.7-6.95-22.25-10.09-4.93-2.05-10.54-4.27-16.64-6.4.34-3.03-1.01-6.26-3.94-8.48-15.79-12.02-31.01-24.87-45.48-38.27,17.58-.63,35.22-2.79,52.65-6.4,5.36,12.23,12.34,23.94,20.91,34.81,1.1,1.39,2.52,2.47,4.09,3.21.35,2.57.82,5.14,1.44,7.69,2.02,8.36,5.32,16.23,9.22,23.94h0ZM671.1,602.05c-17.05,0-38.23-1.79-59.51-8.11l46.76-21.12c1.23,1.11,2.73,2.01,4.45,2.52.37.11.75.21,1.14.28,26.76,5.34,54.02,10.78,80.65,18.1-22.74,4.4-45.88,7.88-69.24,8.28-1.38.02-2.8.04-4.24.04h0ZM347.77,625.76c11.95,0,23.69-2.8,33.52-8.2,1.19,4.11,2.61,8.21,4.32,12.31.48,1.16,1.24,2.16,2.11,3.06-7.32,7.95-15.01,15.34-23.31,21.68-2.65-9.35-10.1-18.45-17.16-24.48-1.83-1.56-3.69-3.1-5.56-4.62,2.03.16,4.06.24,6.09.24h0ZM863.77,677.22c-2.15,0-4.3-.09-6.45-.26-17.48-10.46-35.58-19.1-53.93-25.72l88.39-24.35c13.37-3.68,27.21-7.49,41.06-8.01,1.17-.04,2.34-.07,3.53-.07,17.28,0,36.26,4.67,60.87,14.89,30.36,12.62,58.63,28.7,84.42,47.87-.02,0-.04,0-.07,0-.07,0-.14,0-.21,0-.03,0-.06,0-.09,0-5.66.51-9.44,5.05-8.43,10.15,1.62,8.19,2.63,16.42,3.1,24.64-2.49.34-5.02.5-7.59.5-14.14,0-29.24-4.71-42.82-8.98l-71.21-22.37c-1.78-1.43-4.03-2.42-6.52-2.6-.21-.02-.43-.02-.63-.02-.36,0-.71.02-1.05.04l-21.55-6.77c5.17-4.03,9.82-8.58,13.72-13.65,3.13-4.07,1.74-9.89-3.09-13-1.99-1.28-4.26-1.9-6.45-1.9-3.13,0-6.11,1.26-7.95,3.65-12.44,16.2-34.25,25.96-57.02,25.96h0ZM672.81,681.76c-11.38-5.76-22.01-12.89-31.42-21.07,2.58-.1,5.16-.16,7.73-.32,9.6-.6,19.17-1.61,28.42-2.58,14.6-1.54,28.39-2.99,42.49-3.01.07,0,.15,0,.22,0,28.49,0,58.08,6.35,86.92,18.14-2.44,13.23-2.68,26.97-.77,40.62l-58.41-10.49c-18.7-3.36-37.96-6.86-55.82-13.1,9.44-6.89,21.9-10.42,34.62-10.42,11.01,0,22.23,2.64,31.88,8.02,1.84,1.03,3.87,1.52,5.83,1.52,3.38,0,6.57-1.47,8.33-4.18,2.78-4.28.95-10.03-4.09-12.85-13.4-7.49-28.7-11.17-43.67-11.17-18.28,0-36.08,5.49-49.36,16.24-1.55,1.26-2.51,2.89-2.9,4.63h0ZM1004.57,822.45c-12.26-13.12-23.81-27.27-35.64-41.77-12.56-15.39-25.55-31.31-39.62-46.06-14.33-15.02-29.82-28.55-46.09-40.47,6.89-1.23,13.58-3.13,19.89-5.68.47.22.95.44,1.47.61l33.1,10.4c2.07,20.16,12.51,40.36,28.91,55.32,1.32,1.2,2.88,2.06,4.52,2.55,1.13.34,2.3.51,3.46.51,2.48,0,4.9-.79,6.75-2.39,3.96-3.43,3.8-9.29-.38-13.1-10.85-9.9-18.35-22.74-21.35-36.02l60.41,18.98c1.26.4,2.61.81,3.91,1.21-7.7,15.87-13.16,32.59-16.33,49.79-5.22-1.03-10.3-3.12-14.58-6.15-2.08-1.47-4.52-2.18-6.88-2.18-2.96,0-5.79,1.12-7.66,3.3-3.35,3.92-2.29,9.77,2.38,13.07,5.35,3.77,11.44,6.71,17.83,8.63,2.12.64,4.27,1.15,6.44,1.56-.82,9.22-1.01,18.53-.52,27.89h0Z"/>
</svg>